<?xml version="1.0"?>
<svg id="Layer_2" data-name="Layer 2" xmlns="http://www.w3.org/2000/svg" viewBox="0 0 794.45 279.48">
  <defs>
    
  </defs>
  <g id="Layer_1-2" data-name="Layer 1">
    <g>
      <path class="cls-1" d="M70.68,150.03c13.83-.12,27.67-.25,41.5-.37-.05,1.9,0,4.68.61,7.94,1.23,6.62,5.19,15.15,22.37,30.94,13.89,12.78,36.48,25.93,54.76,30.79,4.65,1.24,10.78.59,14.52,1.93.37.13,1.32.69,1.75,1.75.08.21.44,1.15.02,2.1-.46,1.03-1.66,1.68-3.01,1.6-30.14,0-60.27.02-90.41.02-.67,19.8-1.45,26.99-2.24,27-.78.01-1.77-7.1-3.02-26.71-1.33,0-2.66,0-3.99,0-.8,11.11-1.48,13.29-1.94,13.29s-1.15-2.18-1.97-13.29h-5.93c-.82,12.56-1.51,15.85-2.03,15.85-.52,0-1.18-3.29-1.91-15.85h-4.61c-.47,17.58-.98,24.91-1.49,24.91-.52,0-1.11-7.32-1.8-24.9h-5.92v12.39c-.06,1.44-1.08,2.58-2.26,2.73-1.44.19-3.02-1.12-3.01-2.96v-12.17c-22.36-.11-44.72-.21-67.08-.32-1.73.36-3.1.08-3.48-.68-.24-.48-.04-1.02,0-1.11.65-1.64,3.67-1.78,5.12-1.79,2.84-.03,5.36-.27,8.04-1.33,2.48-.98,4.78-2.36,7.03-3.79,6.69-4.26,13.23-8.98,19.25-14.15,5.66-4.87,10.82-10.33,15.4-16.23,2.08-2.68,4.04-5.44,5.88-8.29,1.7-2.63,9.86-16.42,9.86-18.44v-10.86ZM81.9,155.33h-5.95v67.09h5.95v-67.09ZM107.54,155.29c-1.33,0-2.66,0-3.99,0v67.13h3.99c0-22.38,0-44.75,0-67.13ZM89.76,159.9h-4.5c-.03,20.84-.07,41.68-.1,62.52h4.64c-.01-20.84-.03-41.68-.04-62.52ZM99.64,222.42v-62.52h-5.74v62.52h5.74ZM112.82,166.75c-.24,1.61-.02,3.42-.02,5.06,0,1.75,0,3.49,0,5.24,0,3.49,0,6.98,0,10.47v34.91h38.62c10.45,0,20.9-.13,31.35-.08-1.18,0-3.02-1.2-4.12-1.66-1.42-.6-2.83-1.22-4.23-1.86-2.8-1.28-5.57-2.65-8.29-4.11-5.44-2.91-10.7-6.14-15.75-9.68-3.78-2.65-7.44-5.48-10.96-8.48-4.87-4.14-9.51-8.59-13.79-13.33-1.48-1.63-2.91-3.3-4.3-5.01-.69-.85-1.38-1.71-2.05-2.58-.33-.42-.66-.84-.97-1.27-.12-.16-.64-1.12-.8-1.12-.79-1.1-1.58-2.21-2.37-3.31l-1.16-1.61c-.35-.48-.7-1.2-1.16-1.56ZM70.68,222.42v-53.3l-9.72,16.27c-11.58,16.43-27.31,30.71-46.22,38.02l55.94-.99Z"></path>
      <path class="cls-1" d="M793.79,224.51c-1.41-.93-13.13-.98-16.36-1.72-4.64-1.07-15.33-6.21-19.27-9.03-.9-.64-6.76-5.82-6.9-6.26-.76-2.48.46-10.96-.09-12.99-.06-.21-.2-.38-.39-.49-2.31-1.39-11-.9-11.42-1.27-.49-.44.27-3.11-2.01-3.62-1.47-.33-5.44.93-5.96.4-.21-.22.44-5.28-2.29-5.29-2.63-.01-1.96,7.96-.84,9.08,1.45,1.45,5.76.39,6.34.91.37.33-.06,2.48,1.86,3.07,1.47.45,7.1-.02,9.25.02.47,0,.84.38.85.85.09,3.74-.37,10.5,1.24,13.29,1.24,2.12,4.31,3.97,10.92,7.43,1.99,1.04,3.69,1.83,4.89,2.35.86.4.55,1.7-.41,1.66l-40.19-1.74c-.47-.02-.84-.41-.83-.88.08-7.73-.12-15.48-.03-23.21.07-5.55.64-11.47.71-17.06.09-7.68-.11-15.36-.05-23.04-.72-3.85-6.02-1.75-6.56-2.32-.4-.42.88-5.38-2.96-5.19-4.38.22-2.53,4.74-2.96,5.19-.59.62-5.44-1.13-7.26.97-.41.47-.54.97-.62,1.35-.85,3.91-1.48,44.64-1.63,54.22-3.41.04-6.82.09-10.23.13.05,1.46.09,2.91.14,4.37l13.43.23c.3-18.61.61-37.22.91-55.82,1.35-.65,7.91-3.66,12.15-.66.34.24.67.53.99.87l-.63,59.94c0,.49-.41.87-.89.86l-27.33-.62c-.28-.27-.57-.54-.85-.81.1-33.99.2-67.97.3-101.96-.59.08-1.99.18-3.2-.67,0,0-.55-.39-.95-.97-1.83-2.69,1.43-8.16.06-10.34-1.02-1.62-5-.83-5.29-1.12-.29-.29.53-2.61-1.1-3.17-1.08-.37-5.57-.17-6.44.49-.88.66-.1,2.41-.38,2.71-.29.3-4.71-.71-5.26,2.31-.12.64-.56,1.1,0,8.89.03.45.06.83.08,1.07l-5.86-.12c-.08,27.28-.16,54.56-.24,81.85-12.59-2.74-18.64-3.37-21.79-3.33-.32,0-2.32.04-5.1.04-3.06,0-5.56-.03-7.18-.06v18.39c1.46.14,2.93.27,4.39.41.08-2.69.16-5.37.24-8.06v-7.36c1.39-.04,2.79-.08,4.18-.11-.03,1.03-.06,2.06-.08,3.09,10.46.02,20.91.05,31.37.07v-81.27c0-.25,4.61.53,4.61-.99v-9.44c0-.43.32-.81.75-.87,2.7-.35,5.01-.35,7.7,0,.43.06.75.43.75.87v10.1c0,1.32,3.95,1.43,3.95,1.65v97.82c0,.49-.4.88-.89.87l-31.98-.6c-.04.34-.22.67-.52.83-.63.32-1.22.7-1.8,1.11-.34.24-.48.35-.75.57-.29.24-.58.48-.87.72-.72.62-1.42,1.26-2.11,1.91.43.05.81.09,1.05.11,19.76,1.65,42.47.15,62.57.61,24.05.54,48.27,1.47,72.36,2.01,2.51.06,12.75,2.34,13.37-1.09.08-.42-.39-1.92-.66-2.1Z"></path>
      <path class="cls-1" d="M640.92,216.07c-7.56-.03-15.13-.06-22.69-.09,0-.07-.02-.14-.03-.21v-93.05c0-1.92-5.99-1.6-6.49-2.4-1-1.59.9-11.74-.41-14.4-1.11-2.24-6.02-1.73-6.26-1.97-.51-.51-.37-11.17-.68-12.81-.47-2.49-3.38-2.73-3.83-4.07-1.37-4.12-.14-11.38-.81-15.65-.56-3.59-3.34-4.2-4.5-.81-.03.08-.05.18-.05.26l-.63,15.86c-.01.3-.17.57-.43.72-1.02.59-3.58,1.37-4.08,3.14-.66,2.35-.31,12.21-1.43,13.05-1.23.92-5.06.25-5.81,2.74-.68,2.28.3,13.54-.79,14.68-.36.38-6.22-1.34-7.21,2.85-.02.07-.02.15-.02.22v88.8c0,.5-.42.9-.92.87l-10.1-.56c-.46-.03-.82-.41-.82-.87v-14.64c0-1.96-6.9-2.01-7.21-2.33-.49-.51.58-8.59-.52-11-1.3-2.84-5.14-1.86-5.43-2.13-.47-.45.63-10.28-.35-12.49-1.33-3.02-5.95-1.69-6.24-1.98-.21-.21.55-3.81-1.28-5.63-1.81-1.8-4.59-.48-5.24-1.02-.79-.66-.47-5.97-.78-6.45-.26-.4-2.34-.53-2.85-.13-.73.58-.61,6.16-1.07,6.61-.38.37-4.3-.41-5.89.36-2.32,1.13-.9,5.87-1.31,6.25-.22.21-4.25-.51-5.57,1.99-.81,1.53-.46,3.02-.33,6.86.08,2.52-.11,4.63-.32,6.13-.06.43-.43.75-.87.75-1.34-.01-2.68-.02-4.02-.04-.48,0-.87.38-.88.86-.16,9.34-.33,18.68-.49,28.03,0,.47-.39.85-.86.86l-5.68.1c-.18,0-.36.05-.5.17-.61.5-.93,1.27-.83,2.01.09.59.42,1.01.67,1.24.15.15.36.22.58.22,3.38.01,6.77.02,10.15.03.48,0,.87-.38.87-.86.09-9.11.18-18.23.27-27.34,0-.12.02-.25.08-.35.87-1.5,5.76-.51,5.76-3.21v-12.83c0-.18,2.76.15,3.6-.02,4.36-.85,2.58-6.56,2.98-6.56h9.21c.37,0-1.19,5.38,2.44,6.45,1.04.31,3.03-.1,3.41.2,1.44,1.15-.01,10.33,1.04,12.45.91,1.82,5.15,1.57,5.54,2.03,1.92,2.24-3.98,14.63,5.96,13.92.56-.04.73.83.73.83s.09.12.16.25c.5.83-1.8,12.19.76,15.22,1.22,1.45,2.55.26,9.92.61,4.11.2,10.21,3.01,10.83-2.92.53-5,.54-12.49.69-17.75.66-23.4-.52-46.91-.05-70.32.01-.54.51-.96,1.04-.84,9.9,2.17,4.31-15.31,6.85-17.08,1.05-.73,3.39.1,4.67-1.43,2.63-3.14-.11-16.57,4.89-16.4,3.47.12,2.1,5.54,2.32,7.98.13,1.48.62,6.81.98,7.58,1.14,2.44,5.59,1.34,6.17,3.05,1.08,3.19-.91,11.11.18,14.3.49,1.44,3.72,1.76,5.63,1.76.48,0,.87.39.87.87l.29,91.75s0,.07,0,.1c.01.13.06.21.06.23.04.09.07.51.1,1.72h27.05c-.06-1.44-.12-2.87-.18-4.31Z"></path>
      <path class="cls-1" d="M275.35,181.95c.67-2.38,5.96-1.54,7.9-1.64.02-21.05.04-42.09.07-63.14,1.3-.07,2.66-.11,4.07-.12,1.3,0,2.56.03,3.76.08,0-3.89,0-7.78.01-11.68,3.71-.05,7.42-.09,11.13-.14-.21-2.52.43-4.46,1.32-4.83.5-.21,1.04-.19,1.04-.19,0,0,.63.01,1.24.35.87.48,1.47,2.33,1.15,4.63h9.05c.04,3.89.09,7.79.13,11.68,2.36.05,4.72.11,7.08.16.14,22.16.28,44.32.43,66.47.05,1.6-.84,2.79-1.64,2.87-.88.09-2.16-1.12-2.15-3.03-.3-10.06-.49-20.33-.55-30.81-.07-11.08,0-21.93.21-32.54-1.14.07-2.36.12-3.63.12-1.32,0-2.58-.04-3.75-.11,0-3.73,0-7.47,0-11.2-2.8.22-5.81.35-9,.35-2.6,0-5.08-.09-7.41-.24,0,3.94.02,7.88.02,11.82l-8.65.13c.12,23.85.24,47.7.35,71.55-1.06.05-2.12.09-3.18.14-.16-3.27-.32-6.54-.48-9.81-1.34-.03-2.67-.06-4.01-.09.04,11.71.09,23.42.13,35.12h-64.63c-3,0-6.01,0-9.01,0-1.9,0-3.8-.06-5.69,0-.28,0-1.09.04-2.19,0-2.3-.09-3.83-.18-4.33-1.08-.23-.41-.23-.99-.03-1.43.69-1.5,3.82-1.36,8-1.28,2.37.04,5.81.07,10.07.01.05-4.38.1-8.77.15-13.15.38-.04,5.55-.59,6.99-4,1.26-2.97-.42-6.04-1.25-8.85-.81-2.74-1.25-5.66-.99-8.5.18-1.91.42-3.81.72-5.71.3-1.87,1.33-4.23,0-5.91-1.11-1.41-2.66-1.8-2.46-3.92.12-1.23.73-2.38,1.08-3.56.39-1.31.67-2.65.85-4.01.42-3.11.68-6.98-.92-9.8-.71-1.26-1.56-2.48-2.01-3.86-1.3-4.01,1.34-6.98,3.87-9.68,1.07-1.13,2.06-.78,2.66.57.52,1.16.73,2.46.62,3.72-.12,1.41-.88,2.13-1.48,3.35-.6,1.21-.7,2.64-.32,3.93.42,1.41.68,2.86,1.02,4.3.19.81.4,1.61.58,2.42s.58,1.74.58,2.53c.13.57.17,1.9.55,2.34.54.62,1.77.03,1.92-.72.18-.9-.12-1.51.67-2.24,3.14,1.27,1.76.43,2.44-.81,1.87-3.4,2.23,1.07,2.59,1.36.41.33,1.57-.11,2.33.28,1.45.73,2.72,3,2.48,4.59-.16,1.05-.76,1.98-1.13,2.98-.83,2.23-.39,4.85,1,6.76,1.85,2.55,4.08,2.58,6.91,3.24.96.22,1.92.66,2.51,1.46,1.07,1.44.09,3.04-.77,4.29-1.45,2.09-2.9,4.19-4.34,6.28-1.33,1.92-2.14,3.83-2.89,6.05-.39,1.16-1.63,3.63-1.19,4.85,1.11,3.12,7.17,3.47,8.16,3.51,0,5.45-.01,10.9-.02,16.35l32.25-.66v-31.92ZM230.56,190.77c4.97-5.1,5.64-8.73,5.24-11.16-.49-2.96-2.88-6-2.23-6.5.29-.23,1,.18,1.59.59.79,3.4,2.22,5.6,3.43,5.51,1.36-.1,2.79-3.15,1.91-4.58-.95-1.53-4.05.38-6.93-1.52-1.46-.96-2.1-2.39-2.92-4.19-.77-1.71-1.61-3.57-1.22-5.75.35-1.95,1.38-2.46,1.14-4.09-.18-1.24-1.02-2.62-1.9-2.63-1-.01-1.85,1.74-2.18,2.9-.91,3.15.83,5.9-.13,6.53-.63.41-1.74-.54-2.45.07-.35.3-.39.78-.4.97-.33,3.8-4.26,9.83-2.07,18.28.33,1.25.95,3.2,2.24,5.44,0,3.01-.02,6.02-.02,9.03-.53.69-1.36,1.61-2.57,2.43-1.7,1.16-3.36,1.59-4.35,1.76v10.26c7.28-.02,14.57-.04,21.85-.06-.02-3.35-.05-6.71-.07-10.06-.9-.03-2.69-.21-4.59-1.29-1.76-1-2.79-2.29-3.3-3.02-.02-2.97-.03-5.95-.05-8.92Z"></path>
      <path class="cls-1" d="M367.48,76.33c-.28-.25-3.72.78-4.47-1.78-1.1-3.75.54-11.14-.14-15.34-1.74.58-5.23.19-5.79-1.77-.33-1.17-.72-6.12-.81-7.74-.14-2.34.51-11.66-.12-12.72-.74-1.25-3.68-1.67-4.36.29-.72,2.09.07,8.83-.11,11.73-.09,1.49-.63,7.4-1,8.22-1.25,2.85-5.33,1.75-5.58,1.99-.56.53.59,12.9-.13,15.34-.78,2.63-4.35,1.29-4.49,2.15-.93,24.93,1.31,50.82.01,75.63-.19,3.61-1.36,16.54-2.71,19.01-.7,1.27-2.21,1.7-2.53,3.39-1.06,5.54.44,15.21-.69,21.03-.53,2.75-2.72,2.75-3.25,0-.43-2.23.04-6-.02-8.53-.11-4.2-.74-11.78.02-15.79.38-2.02,2.71-2.61,3.14-4.1.66-2.27,1.33-12.03,1.48-14.98,1.29-25.71-1.04-52.49,0-78.32.63-3.35,4.19-1.96,4.59-2.32.59-.55-.81-12.86.32-15.14.98-1.99,5.37-1.77,5.58-1.99.88-.93.48-16.74.83-19.25.7-3.17,3.68-2.92,3.85-3.51l.91-29.24,2.01-2.59c1.23.95,1.88,2.26,2.15,3.76.9,4.96-.18,25.77,1.67,28.28.39.53,1.61.59,2.1,1.51,2.32,4.33.32,15.5.96,20.65.33,1.23,5.28.31,6.57,2.1,1.77,2.45,0,14.69.74,15.39.16.15,3.92.1,3.92,1.68v106.28h33.89c.25,0,2.3,1.5,2.3,1.65v35.54c0,1.74-4.61.84-4.61-.66v-31.92c-12.06-.33-24.13-.66-36.19-.99v-106.94Z"></path>
      <path class="cls-1" d="M496.31,217.01c-.6.65-2.76.58-3.07.07-.87-1.47,4.03-25.1,4.53-29.22,1.39-11.55.6-24.57,2.04-35.47.37-2.81,2.27-6.07,2.91-8.93,2.2-9.85,5.78-28.41-.7-36.82-7.01-9.09-19.51-3.8-27.93-.03.24,1.39,9.4,2.08,5.94,4.29-1.24.79-13.63.1-15.17-.66-1.06-.52-1.35-2.63-2.24-3.68-2.62-3.07-11.21-8.58-15.24-9.11-22.2-2.91-19.93,27.33-17.08,41.43,1.88,9.31,2.86,10.69,2.96,20.67.15,15.4,1.97,30.73,4.94,45.79.58,2.95,3.15,8.7,1.99,11.15-2.42,5.11-5.43-5.55-5.91-7.23-4.55-15.85-5.55-35.86-5.63-52.34-.05-10.34-4.6-19.45-5.26-30.22-1.37-22.27,11.27-46.02,35.38-29.46,2.19,1.5,8.03,7.34,9.72,7.34,1.59,0,10.14-5.72,13.64-6.72,29.28-8.34,30.38,20.62,26.53,41.01-.81,4.29-3.08,9.72-3.59,13.52-1.88,14.12-1.11,29.11-3.54,43.84-.55,3.34-3.62,19.03-5.23,20.78Z"></path>
      <path class="cls-1" d="M450.24,217c-1.66,1.73-4.72.42-4.48-2.11,3.68-14.53,3.03-32.1,8.74-45.94,7.54-18.25,22.06-12.44,27.15,4.12,4.26,13.87,4.17,28.76,6.82,42.95-1.59,2.97-3.74,1.96-4.85-.83-2.56-6.47-3.05-21.93-4.48-29.74-1.02-5.6-3.6-20.68-9.63-22.62-9.91-3.18-13.16,17.52-14.32,23.92-.83,4.56-3.22,28.45-4.95,30.25Z"></path>
      <path class="cls-1" d="M210.18,224.52c75.51,31.94,157.22,49.51,239.24,45.51,56.89-2.58,113.22-15.76,165.66-37.9,18.33-7.71,36.21-16.55,53.71-26.21-49.53,33.98-107.05,56.99-166.37,67.25-99.1,17.24-203.81-1.39-292.24-48.65h0Z"></path>
    </g>
  </g>
</svg>