<?xml version="1.0"?>
<svg id="Layer_2" data-name="Layer 2" xmlns="http://www.w3.org/2000/svg" viewBox="0 0 794.45 456.78">
  <defs>
    
  </defs>
  <g id="Layer_1-2" data-name="Layer 1">
    <g>
      <g>
        <path class="cls-1" d="M164.62,456.7c-1.99,0-3.76-.47-5.33-1.41-1.57-.94-2.8-2.3-3.71-4.06-.9-1.76-1.35-3.87-1.35-6.32s.45-4.57,1.35-6.34c.9-1.76,2.14-3.12,3.71-4.07,1.57-.95,3.35-1.42,5.33-1.42s3.76.47,5.32,1.42c1.56.95,2.79,2.3,3.69,4.07.9,1.77,1.35,3.88,1.35,6.34s-.45,4.56-1.35,6.32c-.9,1.77-2.13,3.12-3.69,4.06-1.56.94-3.33,1.41-5.32,1.41ZM164.62,453.49c1.31,0,2.48-.33,3.51-.98,1.03-.65,1.85-1.62,2.45-2.9.6-1.28.9-2.85.9-4.7s-.3-3.45-.9-4.73c-.6-1.28-1.42-2.25-2.45-2.9s-2.21-.98-3.51-.98-2.5.33-3.54.99c-1.04.66-1.86,1.63-2.46,2.91-.6,1.28-.9,2.85-.9,4.72s.3,3.42.9,4.69c.6,1.28,1.42,2.24,2.46,2.9,1.04.66,2.22.99,3.54.99Z"></path>
        <path class="cls-1" d="M185.59,456.39v-23h14.31v3.03h-10.79v7.4h9.76v3.01h-9.76v9.57h-3.52Z"></path>
        <path class="cls-1" d="M225.3,456.39v-23h8.48c1.64,0,2.99.27,4.06.8,1.07.54,1.87,1.26,2.39,2.17s.79,1.93.79,3.06c0,.96-.17,1.76-.52,2.42-.35.65-.82,1.18-1.41,1.57s-1.24.69-1.95.87v.23c.77.03,1.52.28,2.25.73s1.34,1.1,1.81,1.93c.48.83.72,1.83.72,3.02s-.28,2.21-.83,3.15c-.55.94-1.4,1.68-2.54,2.22-1.14.55-2.61.82-4.4.82h-8.85ZM228.82,443.34h4.62c.77,0,1.47-.15,2.1-.45.63-.3,1.12-.72,1.48-1.27.36-.55.54-1.18.54-1.91,0-.95-.33-1.74-.99-2.37-.66-.63-1.67-.95-3.04-.95h-4.71v6.95ZM228.82,453.36h4.97c1.65,0,2.83-.32,3.55-.96.72-.64,1.08-1.43,1.08-2.38,0-.74-.18-1.41-.55-2.01s-.88-1.07-1.55-1.43c-.67-.35-1.47-.53-2.39-.53h-5.11v7.3Z"></path>
        <path class="cls-1" d="M252.39,456.39v-23h8.24c1.77,0,3.25.31,4.43.92,1.18.61,2.07,1.46,2.66,2.56.59,1.09.88,2.34.88,3.75s-.3,2.66-.89,3.73-1.48,1.89-2.66,2.48c-1.18.59-2.67.88-4.45.88h-6.19v-3.01h5.85c1.13,0,2.05-.16,2.74-.49.69-.32,1.21-.79,1.54-1.4.33-.61.49-1.34.49-2.19s-.17-1.61-.49-2.24c-.33-.63-.84-1.11-1.54-1.46-.7-.34-1.62-.52-2.76-.52h-4.32v19.99h-3.52ZM265.47,456.39l-5.57-10.39h3.91l5.67,10.39h-4Z"></path>
        <path class="cls-1" d="M288.79,456.7c-1.99,0-3.76-.47-5.33-1.41-1.57-.94-2.81-2.3-3.71-4.06-.9-1.76-1.35-3.87-1.35-6.32s.45-4.57,1.35-6.34c.9-1.76,2.14-3.12,3.71-4.07,1.57-.95,3.35-1.42,5.33-1.42s3.76.47,5.32,1.42,2.79,2.3,3.69,4.07c.9,1.77,1.35,3.88,1.35,6.34s-.45,4.56-1.35,6.32c-.9,1.77-2.13,3.12-3.69,4.06-1.56.94-3.33,1.41-5.32,1.41ZM288.79,453.49c1.31,0,2.48-.33,3.51-.98,1.03-.65,1.85-1.62,2.46-2.9.6-1.28.9-2.85.9-4.7s-.3-3.45-.9-4.73-1.42-2.25-2.46-2.9c-1.03-.65-2.21-.98-3.51-.98s-2.5.33-3.54.99c-1.04.66-1.86,1.63-2.46,2.91-.6,1.28-.9,2.85-.9,4.72s.3,3.42.9,4.69c.6,1.28,1.42,2.24,2.46,2.9,1.04.66,2.22.99,3.54.99Z"></path>
        <path class="cls-1" d="M319.35,456.7c-1.99,0-3.76-.47-5.33-1.41-1.57-.94-2.81-2.3-3.71-4.06-.9-1.76-1.35-3.87-1.35-6.32s.45-4.57,1.35-6.34c.9-1.76,2.14-3.12,3.71-4.07,1.57-.95,3.35-1.42,5.33-1.42s3.76.47,5.32,1.42c1.56.95,2.79,2.3,3.69,4.07.9,1.77,1.35,3.88,1.35,6.34s-.45,4.56-1.35,6.32c-.9,1.77-2.13,3.12-3.69,4.06-1.56.94-3.33,1.41-5.32,1.41ZM319.35,453.49c1.31,0,2.48-.33,3.51-.98,1.03-.65,1.85-1.62,2.46-2.9.6-1.28.9-2.85.9-4.7s-.3-3.45-.9-4.73c-.6-1.28-1.42-2.25-2.46-2.9s-2.21-.98-3.51-.98-2.5.33-3.54.99c-1.04.66-1.86,1.63-2.46,2.91-.6,1.28-.9,2.85-.9,4.72s.3,3.42.9,4.69c.6,1.28,1.42,2.24,2.46,2.9,1.04.66,2.22.99,3.54.99Z"></path>
        <path class="cls-1" d="M340.33,456.39v-23h3.52v7.35l-.06,5.25.06,1.73v8.68h-3.52ZM342.83,450.28v-3.52c.5-.77,1.01-1.5,1.5-2.18s1.02-1.35,1.57-2.01c.54-.66,1.13-1.34,1.74-2.04l6.45-7.15h4.48l-9.77,10.76-.23-.05-5.74,6.18ZM354.5,456.39l-7.83-11.25,2.21-2.7,9.79,13.96h-4.17Z"></path>
        <path class="cls-1" d="M368.39,456.39v-23h3.52v19.98h10.42v3.03h-13.94Z"></path>
        <path class="cls-1" d="M397.68,456.39v-9.16l-8.48-13.85h4.11l4.32,7.33c.48.8.91,1.57,1.27,2.32.37.74.74,1.66,1.13,2.75h-1.13c.39-1.11.77-2.04,1.13-2.79.37-.75.77-1.51,1.23-2.28l4.28-7.33h4.09l-8.44,13.85v9.16h-3.52Z"></path>
        <path class="cls-1" d="M419.31,456.39v-23h4.06l8.66,13.69c.29.45.61.99.97,1.62.36.63.74,1.34,1.14,2.12s.8,1.64,1.19,2.57h-.43c-.09-.87-.16-1.74-.21-2.6-.05-.86-.08-1.66-.1-2.42-.02-.75-.03-1.38-.03-1.9v-13.09h3.57v23h-4.08l-7.77-12.24c-.41-.67-.82-1.34-1.21-2.02-.4-.68-.83-1.46-1.31-2.35-.48-.89-1.06-1.97-1.75-3.25h.56c.05,1.13.1,2.19.15,3.17s.09,1.85.12,2.61c.03.76.04,1.36.04,1.81v12.27h-3.57Z"></path>
        <path class="cls-1" d="M464.3,456.39v-23h3.52v9.73h11.39v-9.73h3.54v23h-3.54v-10.25h-11.39v10.25h-3.52Z"></path>
        <path class="cls-1" d="M494.17,456.39v-23h14.48v3.03h-10.96v6.85h10.17v3.01h-10.17v7.09h11.05v3.03h-14.57Z"></path>
        <path class="cls-1" d="M523.08,433.39v23h-3.52v-23h3.52Z"></path>
        <path class="cls-1" d="M544.16,456.7c-2.08,0-3.9-.48-5.47-1.44-1.57-.96-2.79-2.32-3.67-4.08s-1.32-3.86-1.32-6.28.44-4.56,1.34-6.32c.89-1.77,2.11-3.12,3.67-4.08,1.55-.95,3.32-1.43,5.31-1.43,1.23,0,2.39.18,3.47.55,1.08.37,2.04.89,2.89,1.56s1.55,1.48,2.1,2.41c.55.93.92,1.95,1.1,3.06h-3.61c-.21-.67-.49-1.27-.85-1.81-.36-.54-.79-1-1.29-1.38-.5-.38-1.07-.67-1.7-.87-.63-.2-1.33-.3-2.08-.3-1.3,0-2.46.33-3.5.99-1.03.66-1.85,1.63-2.46,2.91-.6,1.28-.9,2.85-.9,4.7s.3,3.42.9,4.69c.6,1.28,1.43,2.25,2.48,2.91s2.25,1,3.61,1c1.23,0,2.31-.25,3.23-.75.92-.5,1.64-1.21,2.15-2.13.51-.92.76-2.01.76-3.27l.91.15h-6.55v-2.9h9.08v2.64c0,1.94-.41,3.61-1.24,5.03-.83,1.42-1.96,2.51-3.4,3.28-1.44.77-3.09,1.16-4.96,1.16Z"></path>
        <path class="cls-1" d="M564.46,456.39v-23h3.52v9.73h11.39v-9.73h3.54v23h-3.54v-10.25h-11.39v10.25h-3.52Z"></path>
        <path class="cls-1" d="M593.17,436.41v-3.03h17.86v3.03h-7.15v19.98h-3.54v-19.98h-7.18Z"></path>
        <path class="cls-1" d="M628.95,456.78c-1.72,0-3.21-.27-4.48-.82s-2.26-1.32-2.97-2.34c-.72-1.01-1.11-2.22-1.18-3.62h3.54c.07.83.34,1.52.81,2.07.47.55,1.08.95,1.83,1.22.75.27,1.56.4,2.44.4.98,0,1.84-.15,2.6-.46.76-.3,1.36-.74,1.8-1.3.44-.56.66-1.21.66-1.95,0-.67-.19-1.22-.58-1.64-.39-.43-.91-.78-1.56-1.07-.65-.28-1.4-.53-2.23-.75l-2.69-.74c-1.88-.5-3.35-1.25-4.41-2.24-1.06-.99-1.58-2.27-1.58-3.84,0-1.33.36-2.49,1.07-3.48.72-.99,1.69-1.76,2.92-2.32,1.23-.55,2.62-.83,4.16-.83s2.96.28,4.16.83c1.2.55,2.14,1.3,2.83,2.26.68.96,1.04,2.05,1.07,3.27h-3.43c-.11-1.05-.6-1.86-1.46-2.44s-1.94-.86-3.25-.86c-.93,0-1.73.14-2.42.43-.68.29-1.21.69-1.59,1.2-.38.51-.56,1.09-.56,1.74,0,.73.22,1.32.67,1.77s.99.8,1.64,1.07,1.26.47,1.85.63l2.24.59c.73.19,1.48.44,2.26.75.78.31,1.5.72,2.15,1.22.66.5,1.19,1.12,1.6,1.85.41.74.61,1.62.61,2.66,0,1.3-.33,2.45-1,3.47-.67,1.02-1.64,1.82-2.91,2.4s-2.81.87-4.61.87Z"></path>
      </g>
      <g>
        <g>
          <path class="cls-1" d="M72.4,341.27c-.59-5.57-2.53-9.89-5.82-12.97-3.29-3.08-7.51-4.62-12.66-4.62-3.14,0-6.09.67-8.84,2-2.75,1.33-5.17,3.24-7.24,5.73-2.07,2.49-3.7,5.48-4.89,8.97-1.19,3.5-1.78,7.43-1.78,11.82,0,5.57,1.07,10.48,3.2,14.75,2.13,4.27,5,7.58,8.62,9.95,3.61,2.37,7.61,3.55,11.99,3.55,3.85,0,7.64-.87,11.37-2.62s6.78-4.28,9.15-7.6l2.31,1.87c-2.55,3.5-5.3,6.19-8.26,8.09-2.96,1.9-5.91,3.18-8.84,3.86-2.93.68-5.61,1.02-8.04,1.02-4.44,0-8.52-.8-12.22-2.4-3.7-1.6-6.9-3.83-9.6-6.71-2.7-2.87-4.77-6.22-6.22-10.04-1.45-3.82-2.18-7.95-2.18-12.39,0-4.21.64-8.29,1.91-12.26,1.27-3.97,3.18-7.55,5.73-10.75,2.55-3.2,5.76-5.75,9.64-7.64,3.88-1.89,8.4-2.84,13.55-2.84,3.32,0,6.46.44,9.42,1.33,2.96.89,5.8,2.25,8.53,4.09l-.44-4.8h4.8v20.61h-3.2Z"></path>
          <path class="cls-1" d="M84.39,380.98c1.84,0,3.11-.46,3.82-1.38.71-.92,1.12-2.19,1.24-3.82.12-1.63.18-3.51.18-5.64v-20.26c0-.95.01-1.9.04-2.84.03-.95.13-1.92.31-2.93-1.07.06-2.12.1-3.15.13-1.04.03-2.09.08-3.15.13v-3.64h2.75c2.55,0,4.31-.25,5.29-.76.98-.5,1.79-1.05,2.44-1.64h2.58c.12.95.21,2.12.27,3.51.06,1.39.12,3.15.18,5.29.89-1.48,2.1-2.93,3.64-4.35,1.54-1.42,3.27-2.61,5.2-3.55,1.92-.95,3.95-1.42,6.09-1.42,1.66,0,3.11.44,4.35,1.33s1.87,2.31,1.87,4.26c0,.47-.15,1.05-.44,1.73-.3.68-.77,1.27-1.42,1.78-.65.5-1.51.75-2.58.75-1.3-.06-2.34-.58-3.11-1.55-.77-.98-1.07-2.12-.89-3.42-1.48-.06-3.01.33-4.58,1.16-1.57.83-3.04,1.97-4.4,3.42-1.36,1.45-2.58,3.15-3.64,5.11l.09,21.86c0,1.19-.02,2.24-.04,3.15-.03.92-.13,1.88-.31,2.89.95-.06,1.88-.1,2.8-.13.92-.03,1.85-.07,2.8-.13v3.64h-18.21v-2.67Z"></path>
          <path class="cls-1" d="M143.74,385.07c-4.09,0-7.77-.96-11.06-2.89-3.29-1.92-5.88-4.65-7.77-8.17-1.9-3.52-2.84-7.69-2.84-12.48,0-4.14.93-8.03,2.8-11.64,1.87-3.61,4.49-6.53,7.86-8.75,3.38-2.22,7.29-3.33,11.73-3.33,2.49,0,4.81.4,6.98,1.2,2.16.8,4.07,2.01,5.73,3.64,1.66,1.63,2.96,3.67,3.91,6.13.95,2.46,1.42,5.35,1.42,8.66l-31.28.53c0,4.5.49,8.46,1.47,11.86.98,3.41,2.56,6.04,4.75,7.91,2.19,1.87,5,2.8,8.44,2.8,1.84,0,3.72-.33,5.64-.98,1.92-.65,3.72-1.54,5.38-2.67,1.66-1.12,2.99-2.37,4-3.73l2.13,1.78c-1.6,2.49-3.53,4.47-5.78,5.95-2.25,1.48-4.56,2.55-6.93,3.2s-4.56.98-6.57.98ZM131.48,354.24h22.66c0-2.13-.31-4.19-.93-6.17-.62-1.98-1.64-3.61-3.07-4.89-1.42-1.27-3.29-1.91-5.6-1.91-3.44,0-6.29,1.02-8.57,3.06-2.28,2.04-3.78,5.35-4.49,9.91Z"></path>
          <path class="cls-1" d="M197.23,383.65c-.18-1.01-.3-1.89-.36-2.67-.06-.77-.15-1.57-.27-2.4-2.01,2.01-4.19,3.6-6.53,4.75-2.34,1.15-4.81,1.73-7.42,1.73-4.5,0-7.85-1.02-10.04-3.07-2.19-2.04-3.29-4.54-3.29-7.51,0-2.72.84-5.08,2.53-7.06,1.69-1.98,3.88-3.61,6.57-4.89,2.7-1.27,5.63-2.22,8.8-2.84,3.17-.62,6.23-.9,9.2-.84v-5.51c0-2.07-.18-4.03-.53-5.86-.36-1.83-1.13-3.35-2.31-4.53-1.19-1.18-3.08-1.81-5.69-1.87-1.72-.06-3.48.27-5.29.98-1.81.71-3.12,1.93-3.95,3.64.47.47.78,1.02.93,1.64.15.62.22,1.2.22,1.73,0,.71-.3,1.53-.89,2.44-.59.92-1.63,1.35-3.11,1.29-1.24,0-2.19-.43-2.84-1.29-.65-.86-.98-1.88-.98-3.07,0-2.01.75-3.82,2.27-5.42,1.51-1.6,3.6-2.87,6.26-3.82,2.67-.95,5.69-1.42,9.06-1.42,4.98,0,8.65,1.32,11.02,3.95,2.37,2.64,3.52,6.8,3.47,12.48v6.62c0,2.22-.02,4.44-.04,6.66-.03,2.22-.04,4.46-.04,6.71,0,.95-.03,1.9-.09,2.84-.06.95-.15,2.01-.27,3.2,1.07-.06,2.12-.12,3.15-.18,1.04-.06,2.09-.12,3.15-.18v3.73h-12.71ZM196.43,361.88c-2.01.06-4.13.31-6.35.76s-4.26,1.11-6.13,2c-1.87.89-3.38,2.06-4.53,3.51-1.16,1.45-1.7,3.21-1.64,5.29.12,2.19.84,3.84,2.18,4.93,1.33,1.1,2.92,1.64,4.75,1.64,2.43,0,4.54-.46,6.35-1.38,1.81-.92,3.6-2.21,5.38-3.87-.06-.65-.09-1.36-.09-2.13v-2.4c0-.3.01-1.24.04-2.84.03-1.6.04-3.43.04-5.51Z"></path>
          <path class="cls-1" d="M232.15,385.07c-1.36,0-2.75-.19-4.18-.58-1.42-.39-2.74-1.14-3.95-2.27-1.21-1.12-2.18-2.77-2.89-4.93-.71-2.16-1.07-5.02-1.07-8.57l.18-25.77-6.84.09v-3.82c1.54-.06,3.11-.64,4.71-1.73,1.6-1.1,3.04-2.59,4.31-4.49,1.27-1.89,2.15-3.97,2.62-6.22h3.02v12.44h14.93v3.46l-14.93.18-.18,24.7c0,2.67.22,4.93.67,6.8.44,1.87,1.17,3.27,2.18,4.22,1.01.95,2.31,1.42,3.91,1.42s3.21-.47,4.66-1.42c1.45-.95,2.74-2.25,3.87-3.91l2.4,1.95c-1.3,1.96-2.59,3.5-3.86,4.62-1.27,1.13-2.5,1.97-3.69,2.53-1.19.56-2.28.92-3.29,1.07-1.01.15-1.87.22-2.58.22Z"></path>
          <path class="cls-1" d="M249.83,380.98c1.83,0,3.11-.46,3.82-1.38.71-.92,1.12-2.19,1.24-3.82.12-1.63.18-3.51.18-5.64v-20.26c0-.95.03-1.85.09-2.71.06-.86.15-1.88.27-3.07-1.07.06-2.12.12-3.15.18-1.04.06-2.09.12-3.15.18v-3.73c2.61,0,4.62-.12,6.04-.36,1.42-.24,2.5-.53,3.24-.89.74-.36,1.32-.74,1.73-1.16h2.58v35.9c0,1.19-.01,2.24-.04,3.15-.03.92-.13,1.88-.31,2.89.95-.06,1.88-.1,2.8-.13.92-.03,1.85-.07,2.8-.13v3.64h-18.12v-2.67ZM258.36,329.54c-1.24,0-2.34-.5-3.29-1.51-.95-1.01-1.42-2.25-1.42-3.73s.49-2.74,1.47-3.78c.98-1.04,2.09-1.55,3.33-1.55,1.36,0,2.5.52,3.42,1.55.92,1.04,1.38,2.3,1.38,3.78s-.49,2.73-1.47,3.73c-.98,1.01-2.12,1.51-3.42,1.51Z"></path>
          <path class="cls-1" d="M291.68,383.91l-12.71-28.96c-.95-2.25-1.69-4.18-2.22-5.78-.53-1.6-.9-2.93-1.11-4-.21-1.07-.34-1.92-.4-2.58l-3.82.27v-3.64h16.35v2.67c-1.78,0-2.92.46-3.42,1.38-.5.92-.58,2.13-.22,3.64s.89,3.12,1.6,4.84l6.84,15.64c.47,1.01.93,2.06,1.38,3.15.44,1.1.87,2.24,1.29,3.42h.09c.3-.89.64-1.83,1.02-2.84.38-1.01.72-1.98,1.02-2.93l7.11-19.46c.47-1.42.98-2.67,1.51-3.73s.92-1.87,1.15-2.4l-5.69.27v-3.64h14.04v2.67c-1.3,0-2.4.44-3.29,1.33-.89.89-1.73,2.22-2.53,4-.8,1.78-1.73,4-2.8,6.66l-11.64,30.03h-3.55Z"></path>
          <path class="cls-1" d="M340.72,385.07c-4.09,0-7.77-.96-11.06-2.89-3.29-1.92-5.88-4.65-7.77-8.17-1.9-3.52-2.84-7.69-2.84-12.48,0-4.14.93-8.03,2.8-11.64,1.87-3.61,4.49-6.53,7.86-8.75,3.38-2.22,7.29-3.33,11.73-3.33,2.49,0,4.81.4,6.98,1.2,2.16.8,4.07,2.01,5.73,3.64,1.66,1.63,2.96,3.67,3.91,6.13.95,2.46,1.42,5.35,1.42,8.66l-31.28.53c0,4.5.49,8.46,1.47,11.86.98,3.41,2.56,6.04,4.75,7.91,2.19,1.87,5,2.8,8.44,2.8,1.84,0,3.72-.33,5.64-.98,1.92-.65,3.72-1.54,5.38-2.67,1.66-1.12,2.99-2.37,4-3.73l2.13,1.78c-1.6,2.49-3.53,4.47-5.78,5.95-2.25,1.48-4.56,2.55-6.93,3.2s-4.56.98-6.57.98ZM328.46,354.24h22.66c0-2.13-.31-4.19-.93-6.17-.62-1.98-1.64-3.61-3.07-4.89-1.42-1.27-3.29-1.91-5.6-1.91-3.44,0-6.29,1.02-8.57,3.06-2.28,2.04-3.78,5.35-4.49,9.91Z"></path>
          <path class="cls-1" d="M391.72,380.71c2.25-.12,3.79-.64,4.62-1.56.83-.92,1.29-2.19,1.38-3.82.09-1.63.13-3.48.13-5.55v-38.38c0-1.18.03-2.32.09-3.42.06-1.1.12-2.09.18-2.98-1.07.06-2.13.12-3.2.18-1.07.06-2.13.12-3.2.18v-3.91l20.97-.09c5.33,0,10.22.62,14.66,1.87,4.44,1.24,8.28,3.15,11.51,5.73,3.23,2.58,5.71,5.83,7.46,9.77,1.75,3.94,2.62,8.57,2.62,13.9,0,4.09-.71,8-2.13,11.73s-3.55,7.03-6.4,9.91c-2.84,2.87-6.38,5.15-10.62,6.84-4.24,1.69-9.14,2.53-14.71,2.53h-23.37v-2.93ZM405.58,373.16c0,1.6-.01,2.96-.04,4.09-.03,1.13-.11,2.07-.22,2.84,1.6.06,3.06.1,4.4.13,1.33.03,2.46.04,3.38.04h1.73c3.85,0,7.33-.71,10.44-2.13,3.11-1.42,5.78-3.39,8-5.91,2.22-2.52,3.94-5.48,5.15-8.88s1.82-7.09,1.82-11.06c0-5.63-1.02-10.5-3.07-14.62-2.04-4.12-5.17-7.32-9.37-9.6-4.21-2.28-9.57-3.42-16.08-3.42-2.19,0-3.72.44-4.58,1.33-.86.89-1.33,2.13-1.42,3.73-.09,1.6-.13,3.46-.13,5.6v37.85Z"></path>
          <path class="cls-1" d="M478.44,385.07c-4.09,0-7.77-.96-11.06-2.89-3.29-1.92-5.88-4.65-7.77-8.17-1.9-3.52-2.84-7.69-2.84-12.48,0-4.14.93-8.03,2.8-11.64,1.87-3.61,4.49-6.53,7.86-8.75,3.38-2.22,7.29-3.33,11.73-3.33,2.49,0,4.81.4,6.97,1.2,2.16.8,4.07,2.01,5.73,3.64,1.66,1.63,2.96,3.67,3.91,6.13.95,2.46,1.42,5.35,1.42,8.66l-31.28.53c0,4.5.49,8.46,1.47,11.86.98,3.41,2.56,6.04,4.75,7.91,2.19,1.87,5,2.8,8.44,2.8,1.84,0,3.72-.33,5.64-.98,1.92-.65,3.72-1.54,5.38-2.67,1.66-1.12,2.99-2.37,4-3.73l2.13,1.78c-1.6,2.49-3.52,4.47-5.78,5.95-2.25,1.48-4.56,2.55-6.93,3.2-2.37.65-4.56.98-6.58.98ZM466.17,354.24h22.66c0-2.13-.31-4.19-.93-6.17-.62-1.98-1.64-3.61-3.06-4.89-1.42-1.27-3.29-1.91-5.6-1.91-3.44,0-6.29,1.02-8.57,3.06-2.28,2.04-3.78,5.35-4.49,9.91Z"></path>
          <path class="cls-1" d="M505.09,383.65v-2.67c1.84,0,3.11-.46,3.82-1.38.71-.92,1.12-2.19,1.24-3.82.12-1.63.18-3.51.18-5.64l.09-20.26c0-.95.01-1.9.04-2.84.03-.95.13-1.92.31-2.93-1.07.06-2.12.12-3.15.18-1.04.06-2.09.12-3.15.18v-3.73c2.61,0,4.58-.12,5.91-.36,1.33-.24,2.32-.53,2.98-.89.65-.36,1.18-.74,1.6-1.16h2.58c.06.42.1.89.13,1.42.03.53.07,1.13.13,1.78.06.65.09,1.39.09,2.22,1.3-1.12,2.74-2.13,4.31-3.02,1.57-.89,3.23-1.6,4.98-2.13,1.75-.53,3.48-.8,5.2-.8,5.15,0,8.91,1.62,11.28,4.84,2.37,3.23,3.55,8.25,3.55,15.06v16.53c0,1.19-.02,2.24-.04,3.15-.03.92-.13,1.88-.31,2.89.95-.06,1.88-.1,2.8-.13.92-.03,1.85-.07,2.8-.13v3.64h-18.13v-2.67c1.84,0,3.11-.46,3.82-1.38.71-.92,1.12-2.19,1.24-3.82.12-1.63.18-3.51.18-5.64v-12.44c-.06-5.09-.9-8.94-2.53-11.55-1.63-2.61-4.19-3.88-7.69-3.82-2.13.06-4.22.62-6.26,1.69s-3.75,2.43-5.11,4.09c.06.47.09,1.01.09,1.6v1.87l-.09,22.66c0,1.19-.02,2.24-.04,3.15-.03.92-.13,1.88-.31,2.89.95-.06,1.88-.1,2.8-.13.92-.03,1.85-.07,2.8-.13v3.64h-18.13Z"></path>
          <path class="cls-1" d="M574.93,385.07c-1.36,0-2.75-.19-4.18-.58-1.42-.39-2.74-1.14-3.95-2.27-1.21-1.12-2.18-2.77-2.89-4.93-.71-2.16-1.07-5.02-1.07-8.57l.18-25.77-6.84.09v-3.82c1.54-.06,3.11-.64,4.71-1.73,1.6-1.1,3.03-2.59,4.31-4.49,1.27-1.89,2.15-3.97,2.62-6.22h3.02v12.44h14.93v3.46l-14.93.18-.18,24.7c0,2.67.22,4.93.67,6.8.44,1.87,1.17,3.27,2.18,4.22,1.01.95,2.31,1.42,3.91,1.42s3.21-.47,4.67-1.42c1.45-.95,2.74-2.25,3.87-3.91l2.4,1.95c-1.3,1.96-2.59,3.5-3.87,4.62-1.27,1.13-2.5,1.97-3.69,2.53-1.19.56-2.28.92-3.29,1.07-1.01.15-1.87.22-2.58.22Z"></path>
          <path class="cls-1" d="M592.61,380.98c1.84,0,3.11-.46,3.82-1.38.71-.92,1.12-2.19,1.24-3.82.12-1.63.18-3.51.18-5.64v-20.26c0-.95.03-1.85.09-2.71.06-.86.15-1.88.27-3.07-1.07.06-2.12.12-3.15.18-1.04.06-2.09.12-3.15.18v-3.73c2.61,0,4.62-.12,6.04-.36,1.42-.24,2.5-.53,3.24-.89.74-.36,1.32-.74,1.73-1.16h2.58v35.9c0,1.19-.02,2.24-.04,3.15-.03.92-.13,1.88-.31,2.89.95-.06,1.88-.1,2.8-.13.92-.03,1.85-.07,2.8-.13v3.64h-18.13v-2.67ZM601.14,329.54c-1.24,0-2.34-.5-3.29-1.51-.95-1.01-1.42-2.25-1.42-3.73s.49-2.74,1.47-3.78c.98-1.04,2.09-1.55,3.33-1.55,1.36,0,2.5.52,3.42,1.55.92,1.04,1.38,2.3,1.38,3.78s-.49,2.73-1.47,3.73c-.98,1.01-2.12,1.51-3.42,1.51Z"></path>
          <path class="cls-1" d="M635.79,385.07c-2.96,0-5.6-.4-7.91-1.2-2.31-.8-4.21-1.7-5.69-2.71l.36,3.11h-3.73l-.53-15.28h2.75c.12,2.43.8,4.61,2.04,6.53,1.24,1.93,2.84,3.42,4.8,4.49,1.96,1.07,4.06,1.6,6.31,1.6,1.54,0,3.05-.25,4.53-.75,1.48-.5,2.72-1.27,3.73-2.31,1.01-1.04,1.51-2.35,1.51-3.95s-.49-3.04-1.47-4.13c-.98-1.09-2.27-2.06-3.87-2.89-1.6-.83-3.32-1.6-5.15-2.31-1.78-.71-3.55-1.45-5.33-2.22-1.78-.77-3.42-1.69-4.93-2.75-1.51-1.07-2.71-2.37-3.6-3.91s-1.33-3.44-1.33-5.69c0-1.24.24-2.61.71-4.09.47-1.48,1.27-2.89,2.4-4.22s2.67-2.43,4.62-3.29c1.95-.86,4.44-1.29,7.46-1.29,1.6,0,3.38.27,5.33.8s3.85,1.54,5.69,3.02l-.18-3.38h3.73v15.55h-2.84c-.12-2.07-.59-4.07-1.42-6-.83-1.92-2.04-3.52-3.64-4.8-1.6-1.27-3.67-1.91-6.22-1.91-2.73,0-4.86.68-6.4,2.04-1.54,1.36-2.31,2.93-2.31,4.71s.58,3.36,1.73,4.58c1.16,1.21,2.65,2.27,4.49,3.15,1.84.89,3.79,1.75,5.86,2.58,2.25.95,4.44,1.99,6.58,3.11,2.13,1.12,3.88,2.53,5.24,4.22,1.36,1.69,2.04,3.87,2.04,6.53,0,2.96-.75,5.42-2.27,7.38-1.51,1.95-3.44,3.39-5.77,4.31-2.34.92-4.78,1.38-7.33,1.38Z"></path>
          <path class="cls-1" d="M675.41,385.07c-1.36,0-2.75-.19-4.18-.58-1.42-.39-2.74-1.14-3.95-2.27-1.21-1.12-2.18-2.77-2.89-4.93-.71-2.16-1.07-5.02-1.07-8.57l.18-25.77-6.84.09v-3.82c1.54-.06,3.11-.64,4.71-1.73,1.6-1.1,3.03-2.59,4.31-4.49,1.27-1.89,2.15-3.97,2.62-6.22h3.02v12.44h14.93v3.46l-14.93.18-.18,24.7c0,2.67.22,4.93.67,6.8.44,1.87,1.17,3.27,2.18,4.22,1.01.95,2.31,1.42,3.91,1.42s3.21-.47,4.67-1.42c1.45-.95,2.74-2.25,3.87-3.91l2.4,1.95c-1.3,1.96-2.59,3.5-3.87,4.62-1.27,1.13-2.5,1.97-3.69,2.53-1.19.56-2.28.92-3.29,1.07-1.01.15-1.87.22-2.58.22Z"></path>
          <path class="cls-1" d="M693.09,380.98c1.84,0,3.11-.46,3.82-1.38.71-.92,1.12-2.19,1.24-3.82.12-1.63.18-3.51.18-5.64v-20.26c0-.95.01-1.9.04-2.84.03-.95.13-1.92.31-2.93-1.07.06-2.12.1-3.15.13-1.04.03-2.09.08-3.15.13v-3.64h2.75c2.55,0,4.31-.25,5.29-.76.98-.5,1.79-1.05,2.44-1.64h2.58c.12.95.21,2.12.27,3.51.06,1.39.12,3.15.18,5.29.89-1.48,2.1-2.93,3.64-4.35,1.54-1.42,3.27-2.61,5.2-3.55,1.92-.95,3.95-1.42,6.09-1.42,1.66,0,3.11.44,4.35,1.33,1.24.89,1.87,2.31,1.87,4.26,0,.47-.15,1.05-.44,1.73-.3.68-.77,1.27-1.42,1.78-.65.5-1.51.75-2.58.75-1.3-.06-2.34-.58-3.11-1.55-.77-.98-1.07-2.12-.89-3.42-1.48-.06-3.01.33-4.58,1.16-1.57.83-3.04,1.97-4.4,3.42-1.36,1.45-2.58,3.15-3.64,5.11l.09,21.86c0,1.19-.02,2.24-.04,3.15-.03.92-.13,1.88-.31,2.89.95-.06,1.88-.1,2.8-.13.92-.03,1.85-.07,2.8-.13v3.64h-18.21v-2.67Z"></path>
          <path class="cls-1" d="M739.92,407.72c-1.84,0-3.41-.44-4.71-1.33-1.3-.89-1.96-2.25-1.96-4.09,0-1.07.36-2.04,1.07-2.93s1.63-1.33,2.75-1.33c1.42-.06,2.38.38,2.89,1.33.5.95.76,1.78.76,2.49v.58c0,.21-.03.43-.09.67.18.12.5.18.98.18.71,0,1.48-.3,2.31-.89.83-.59,1.57-1.45,2.22-2.58.77-1.3,1.67-3.26,2.71-5.86,1.04-2.61,2.21-5.72,3.51-9.33l-13.86-29.68c-1.54-3.32-2.65-5.95-3.33-7.91-.68-1.95-1.14-3.41-1.38-4.35l-4.26.18v-3.64h18.39v2.67h-.36c-2.49.18-3.85,1.11-4.09,2.8-.24,1.69.44,4.25,2.04,7.69l10.4,22.3c1.36-3.79,2.67-7.54,3.91-11.24,1.24-3.7,2.49-7.39,3.73-11.06.47-1.3.96-2.65,1.47-4.04.5-1.39,1.01-2.64,1.51-3.73.5-1.09.96-1.79,1.38-2.09l-6.13.36v-3.64h13.95v2.67c-2.19.83-3.84,2.21-4.93,4.13-1.1,1.93-2.21,4.4-3.33,7.42l-11.11,31.01c-1.78,4.98-3.41,9.2-4.89,12.66-1.48,3.46-3.11,6.1-4.89,7.91-1.78,1.81-4,2.71-6.66,2.71Z"></path>
        </g>
        <path class="cls-1" d="M70.68,150.03c13.83-.12,27.67-.25,41.5-.37-.05,1.9,0,4.68.61,7.94,1.23,6.62,5.19,15.15,22.37,30.94,13.89,12.78,36.48,25.93,54.76,30.79,4.65,1.24,10.78.59,14.52,1.93.37.13,1.32.69,1.75,1.75.08.21.44,1.15.02,2.1-.46,1.03-1.66,1.68-3.01,1.6-30.14,0-60.27.02-90.41.02-.67,19.8-1.45,26.99-2.24,27-.78.01-1.77-7.1-3.02-26.71-1.33,0-2.66,0-3.99,0-.8,11.11-1.48,13.29-1.94,13.29s-1.15-2.18-1.97-13.29h-5.93c-.82,12.56-1.51,15.85-2.03,15.85-.52,0-1.18-3.29-1.91-15.85h-4.61c-.47,17.58-.98,24.91-1.49,24.91-.52,0-1.11-7.32-1.8-24.9h-5.92v12.39c-.06,1.44-1.08,2.58-2.26,2.73-1.44.19-3.02-1.12-3.01-2.96v-12.17c-22.36-.11-44.72-.21-67.08-.32-1.73.36-3.1.08-3.48-.68-.24-.48-.04-1.02,0-1.11.65-1.64,3.67-1.78,5.12-1.79,2.84-.03,5.36-.27,8.04-1.33,2.48-.98,4.78-2.36,7.03-3.79,6.69-4.26,13.23-8.98,19.25-14.15,5.66-4.87,10.82-10.33,15.4-16.23,2.08-2.68,4.04-5.44,5.88-8.29,1.7-2.63,9.86-16.42,9.86-18.44v-10.86ZM81.9,155.33h-5.95v67.09h5.95v-67.09ZM107.54,155.29c-1.33,0-2.66,0-3.99,0v67.13h3.99c0-22.38,0-44.75,0-67.13ZM89.76,159.9h-4.5c-.03,20.84-.07,41.68-.1,62.52h4.64c-.01-20.84-.03-41.68-.04-62.52ZM99.64,222.42v-62.52h-5.74v62.52h5.74ZM112.82,166.75c-.24,1.61-.02,3.42-.02,5.06,0,1.75,0,3.49,0,5.24,0,3.49,0,6.98,0,10.47v34.91h38.62c10.45,0,20.9-.13,31.35-.08-1.18,0-3.02-1.2-4.12-1.66-1.42-.6-2.83-1.22-4.23-1.86-2.8-1.28-5.57-2.65-8.29-4.11-5.44-2.91-10.7-6.14-15.75-9.68-3.78-2.65-7.44-5.48-10.96-8.48-4.87-4.14-9.51-8.59-13.79-13.33-1.48-1.63-2.91-3.3-4.3-5.01-.69-.85-1.38-1.71-2.05-2.58-.33-.42-.66-.84-.97-1.27-.12-.16-.64-1.12-.8-1.12-.79-1.1-1.58-2.21-2.37-3.31-.39-.54-.77-1.08-1.16-1.61-.35-.48-.7-1.2-1.16-1.56ZM70.68,222.42v-53.3l-9.72,16.27c-11.58,16.43-27.31,30.71-46.22,38.02l55.94-.99Z"></path>
        <path class="cls-1" d="M793.79,224.51c-1.41-.93-13.13-.98-16.36-1.72-4.64-1.07-15.33-6.21-19.27-9.03-.9-.64-6.76-5.82-6.9-6.26-.76-2.48.46-10.96-.09-12.99-.06-.21-.2-.38-.39-.49-2.31-1.39-11-.9-11.42-1.27-.49-.44.27-3.11-2.01-3.62-1.47-.33-5.44.93-5.96.4-.21-.22.44-5.28-2.29-5.29-2.63-.01-1.96,7.96-.84,9.08,1.45,1.45,5.76.39,6.34.91.37.33-.06,2.48,1.86,3.07,1.47.45,7.1-.02,9.25.02.47,0,.84.38.85.85.09,3.74-.37,10.5,1.24,13.29,1.24,2.12,4.31,3.97,10.92,7.43,1.99,1.04,3.69,1.83,4.89,2.35.86.4.55,1.7-.41,1.66l-40.19-1.74c-.47-.02-.84-.41-.83-.88.08-7.73-.12-15.48-.03-23.21.07-5.55.64-11.47.71-17.06.09-7.68-.11-15.36-.05-23.04-.72-3.85-6.02-1.75-6.56-2.32-.4-.42.88-5.38-2.96-5.19-4.38.22-2.53,4.74-2.96,5.19-.59.62-5.44-1.13-7.26.97-.41.47-.54.97-.62,1.35-.85,3.91-1.48,44.64-1.63,54.22-3.41.04-6.82.09-10.23.13.05,1.46.09,2.91.14,4.37,4.48.08,8.95.15,13.43.23.3-18.61.61-37.22.91-55.82,1.35-.65,7.91-3.66,12.15-.66.34.24.67.53.99.87l-.63,59.94c0,.49-.41.87-.89.86l-27.33-.62c-.28-.27-.57-.54-.85-.81.1-33.99.2-67.97.3-101.96-.59.08-1.99.18-3.2-.67,0,0-.55-.39-.95-.97-1.83-2.69,1.43-8.16.06-10.34-1.02-1.62-5-.83-5.29-1.12-.29-.29.53-2.61-1.1-3.17-1.08-.37-5.57-.17-6.44.49-.88.66-.1,2.41-.38,2.71-.29.3-4.71-.71-5.26,2.31-.12.64-.56,1.1,0,8.89.03.45.06.83.08,1.07-1.95-.04-3.91-.08-5.86-.12-.08,27.28-.16,54.56-.24,81.85-12.59-2.74-18.64-3.37-21.79-3.33-.32,0-2.32.04-5.1.04-3.06,0-5.56-.03-7.18-.06v18.39c1.46.14,2.93.27,4.39.41.08-2.69.16-5.37.24-8.06v-7.36c1.39-.04,2.79-.08,4.18-.11-.03,1.03-.06,2.06-.08,3.09,10.46.02,20.91.05,31.37.07v-81.27c0-.25,4.61.53,4.61-.99v-9.44c0-.43.32-.81.75-.87,2.7-.35,5.01-.35,7.7,0,.43.06.75.43.75.87v10.1c0,1.32,3.95,1.43,3.95,1.65v97.82c0,.49-.4.88-.89.87l-31.98-.6c-.04.34-.22.67-.52.83-.63.32-1.22.7-1.8,1.11-.34.24-.48.35-.75.57-.29.24-.58.48-.87.72-.72.62-1.42,1.26-2.11,1.91.43.05.81.09,1.05.11,19.76,1.65,42.47.15,62.57.61,24.05.54,48.27,1.47,72.36,2.01,2.51.06,12.75,2.34,13.37-1.09.08-.42-.39-1.92-.66-2.1Z"></path>
        <path class="cls-1" d="M640.92,216.07c-7.56-.03-15.13-.06-22.69-.09,0-.07-.02-.14-.03-.21v-93.05c0-1.92-5.99-1.6-6.49-2.4-1-1.59.9-11.74-.41-14.4-1.11-2.24-6.02-1.73-6.26-1.97-.51-.51-.37-11.17-.68-12.81-.47-2.49-3.38-2.73-3.83-4.07-1.37-4.12-.14-11.38-.81-15.65-.56-3.59-3.34-4.2-4.5-.81-.03.08-.05.18-.05.26l-.63,15.86c-.01.3-.17.57-.43.72-1.02.59-3.58,1.37-4.08,3.14-.66,2.35-.31,12.21-1.43,13.05-1.23.92-5.06.25-5.81,2.74-.68,2.28.3,13.54-.79,14.68-.36.38-6.22-1.34-7.21,2.85-.02.07-.02.15-.02.22v88.8c0,.5-.42.9-.92.87l-10.1-.56c-.46-.03-.82-.41-.82-.87v-14.64c0-1.96-6.9-2.01-7.21-2.33-.49-.51.58-8.59-.52-11-1.3-2.84-5.14-1.86-5.43-2.13-.47-.45.63-10.28-.35-12.49-1.33-3.02-5.95-1.69-6.24-1.98-.21-.21.55-3.81-1.28-5.63-1.81-1.8-4.59-.48-5.24-1.02-.79-.66-.47-5.97-.78-6.45-.26-.4-2.34-.53-2.85-.13-.73.58-.61,6.16-1.07,6.61-.38.37-4.3-.41-5.89.36-2.32,1.13-.9,5.87-1.31,6.25-.22.21-4.25-.51-5.57,1.99-.81,1.53-.46,3.02-.33,6.86.08,2.52-.11,4.63-.32,6.13-.06.43-.43.75-.87.75-1.34-.01-2.68-.02-4.02-.04-.48,0-.87.38-.88.86-.16,9.34-.33,18.68-.49,28.03,0,.47-.39.85-.86.86l-5.68.1c-.18,0-.36.05-.5.17-.61.5-.93,1.27-.83,2.01.09.59.42,1.01.67,1.24.15.15.36.22.58.22,3.38.01,6.77.02,10.15.03.48,0,.87-.38.87-.86.09-9.11.18-18.23.27-27.34,0-.12.02-.25.08-.35.87-1.5,5.76-.51,5.76-3.21v-12.83c0-.18,2.76.15,3.6-.02,4.36-.85,2.58-6.56,2.98-6.56h9.21c.37,0-1.19,5.38,2.44,6.45,1.04.31,3.03-.1,3.41.2,1.44,1.15-.01,10.33,1.04,12.45.91,1.82,5.15,1.57,5.54,2.03,1.92,2.24-3.98,14.63,5.96,13.92.56-.04.73.83.73.83s.09.12.16.25c.5.83-1.8,12.19.76,15.22,1.22,1.45,2.55.26,9.92.61,4.11.2,10.21,3.01,10.83-2.92.53-5,.54-12.49.69-17.75.66-23.4-.52-46.91-.05-70.32.01-.54.51-.96,1.04-.84,9.9,2.17,4.31-15.31,6.85-17.08,1.05-.73,3.39.1,4.67-1.43,2.63-3.14-.11-16.57,4.89-16.4,3.47.12,2.1,5.54,2.32,7.98.13,1.48.62,6.81.98,7.58,1.14,2.44,5.59,1.34,6.17,3.05,1.08,3.19-.91,11.11.18,14.3.49,1.44,3.72,1.76,5.63,1.76.48,0,.87.39.87.87l.29,91.75s0,.07,0,.1c.01.13.06.21.06.23.04.09.07.51.1,1.72h27.05c-.06-1.44-.12-2.87-.18-4.31Z"></path>
        <path class="cls-1" d="M275.35,181.95c.67-2.38,5.96-1.54,7.9-1.64.02-21.05.04-42.09.07-63.14,1.3-.07,2.66-.11,4.07-.12,1.3,0,2.56.03,3.76.08,0-3.89,0-7.78.01-11.68,3.71-.05,7.42-.09,11.13-.14-.21-2.52.43-4.46,1.32-4.83.5-.21,1.04-.19,1.04-.19,0,0,.63.01,1.24.35.87.48,1.47,2.33,1.15,4.63h9.05c.04,3.89.09,7.79.13,11.68,2.36.05,4.72.11,7.08.16.14,22.16.28,44.32.43,66.47.05,1.6-.84,2.79-1.64,2.87-.88.09-2.16-1.12-2.15-3.03-.3-10.06-.49-20.33-.55-30.81-.07-11.08,0-21.93.21-32.54-1.14.07-2.36.12-3.63.12-1.32,0-2.58-.04-3.75-.11,0-3.73,0-7.47,0-11.2-2.8.22-5.81.35-9,.35-2.6,0-5.08-.09-7.41-.24,0,3.94.02,7.88.02,11.82l-8.65.13c.12,23.85.24,47.7.35,71.55-1.06.05-2.12.09-3.18.14-.16-3.27-.32-6.54-.48-9.81-1.34-.03-2.67-.06-4.01-.09.04,11.71.09,23.42.13,35.12h-64.63c-3,0-6.01,0-9.01,0-1.9,0-3.8-.06-5.69,0-.28,0-1.09.04-2.19,0-2.3-.09-3.83-.18-4.33-1.08-.23-.41-.23-.99-.03-1.43.69-1.5,3.82-1.36,8-1.28,2.37.04,5.81.07,10.07.01.05-4.38.1-8.77.15-13.15.38-.04,5.55-.59,6.99-4,1.26-2.97-.42-6.04-1.25-8.85-.81-2.74-1.25-5.66-.99-8.5.18-1.91.42-3.81.72-5.71.3-1.87,1.33-4.23,0-5.91-1.11-1.41-2.66-1.8-2.46-3.92.12-1.23.73-2.38,1.08-3.56.39-1.31.67-2.65.85-4.01.42-3.11.68-6.98-.92-9.8-.71-1.26-1.56-2.48-2.01-3.86-1.3-4.01,1.34-6.98,3.87-9.68,1.07-1.13,2.06-.78,2.66.57.52,1.16.73,2.46.62,3.72-.12,1.41-.88,2.13-1.48,3.35-.6,1.21-.7,2.64-.32,3.93.42,1.41.68,2.86,1.02,4.3.19.81.4,1.61.58,2.42s.58,1.74.58,2.53c.13.57.17,1.9.55,2.34.54.62,1.77.03,1.92-.72.18-.9-.12-1.51.67-2.24,3.14,1.27,1.76.43,2.44-.81,1.87-3.4,2.23,1.07,2.59,1.36.41.33,1.57-.11,2.33.28,1.45.73,2.72,3,2.48,4.59-.16,1.05-.76,1.98-1.13,2.98-.83,2.23-.39,4.85,1,6.76,1.85,2.55,4.08,2.58,6.91,3.24.96.22,1.92.66,2.51,1.46,1.07,1.44.09,3.04-.77,4.29-1.45,2.09-2.9,4.19-4.34,6.28-1.33,1.92-2.14,3.83-2.89,6.05-.39,1.16-1.63,3.63-1.19,4.85,1.11,3.12,7.17,3.47,8.16,3.51,0,5.45-.01,10.9-.02,16.35l32.25-.66v-31.92ZM230.56,190.77c4.97-5.1,5.64-8.73,5.24-11.16-.49-2.96-2.88-6-2.23-6.5.29-.23,1,.18,1.59.59.79,3.4,2.22,5.6,3.43,5.51,1.36-.1,2.79-3.15,1.91-4.58-.95-1.53-4.05.38-6.93-1.52-1.46-.96-2.1-2.39-2.92-4.19-.77-1.71-1.61-3.57-1.22-5.75.35-1.95,1.38-2.46,1.14-4.09-.18-1.24-1.02-2.62-1.9-2.63-1-.01-1.85,1.74-2.18,2.9-.91,3.15.83,5.9-.13,6.53-.63.41-1.74-.54-2.45.07-.35.3-.39.78-.4.97-.33,3.8-4.26,9.83-2.07,18.28.33,1.25.95,3.2,2.24,5.44,0,3.01-.02,6.02-.02,9.03-.53.69-1.36,1.61-2.57,2.43-1.7,1.16-3.36,1.59-4.35,1.76v10.26c7.28-.02,14.57-.04,21.85-.06-.02-3.35-.05-6.71-.07-10.06-.9-.03-2.69-.21-4.59-1.29-1.76-1-2.79-2.29-3.3-3.02-.02-2.97-.03-5.95-.05-8.92Z"></path>
        <path class="cls-1" d="M367.48,76.33c-.28-.25-3.72.78-4.47-1.78-1.1-3.75.54-11.14-.14-15.34-1.74.58-5.23.19-5.79-1.77-.33-1.17-.72-6.12-.81-7.74-.14-2.34.51-11.66-.12-12.72-.74-1.25-3.68-1.67-4.36.29-.72,2.09.07,8.83-.11,11.73-.09,1.49-.63,7.4-1,8.22-1.25,2.85-5.33,1.75-5.58,1.99-.56.53.59,12.9-.13,15.34-.78,2.63-4.35,1.29-4.49,2.15-.93,24.93,1.31,50.82.01,75.63-.19,3.61-1.36,16.54-2.71,19.01-.7,1.27-2.21,1.7-2.53,3.39-1.06,5.54.44,15.21-.69,21.03-.53,2.75-2.72,2.75-3.25,0-.43-2.23.04-6-.02-8.53-.11-4.2-.74-11.78.02-15.79.38-2.02,2.71-2.61,3.14-4.1.66-2.27,1.33-12.03,1.48-14.98,1.29-25.71-1.04-52.49,0-78.32.63-3.35,4.19-1.96,4.59-2.32.59-.55-.81-12.86.32-15.14.98-1.99,5.37-1.77,5.58-1.99.88-.93.48-16.74.83-19.25.7-3.17,3.68-2.92,3.85-3.51l.91-29.24,2.01-2.59c1.23.95,1.88,2.26,2.15,3.76.9,4.96-.18,25.77,1.67,28.28.39.53,1.61.59,2.1,1.51,2.32,4.33.32,15.5.96,20.65.33,1.23,5.28.31,6.57,2.1,1.77,2.45,0,14.69.74,15.39.16.15,3.92.1,3.92,1.68v106.28h33.89c.25,0,2.3,1.5,2.3,1.65v35.54c0,1.74-4.61.84-4.61-.66v-31.92c-12.06-.33-24.13-.66-36.19-.99v-106.94Z"></path>
        <path class="cls-1" d="M496.31,217.01c-.6.65-2.76.58-3.07.07-.87-1.47,4.03-25.1,4.53-29.22,1.39-11.55.6-24.57,2.04-35.47.37-2.81,2.27-6.07,2.91-8.93,2.2-9.85,5.78-28.41-.7-36.82-7.01-9.09-19.51-3.8-27.93-.03.24,1.39,9.4,2.08,5.94,4.29-1.24.79-13.63.1-15.17-.66-1.06-.52-1.35-2.63-2.24-3.68-2.62-3.07-11.21-8.58-15.24-9.11-22.2-2.91-19.93,27.33-17.08,41.43,1.88,9.31,2.86,10.69,2.96,20.67.15,15.4,1.97,30.73,4.94,45.79.58,2.95,3.15,8.7,1.99,11.15-2.42,5.11-5.43-5.55-5.91-7.23-4.55-15.85-5.55-35.86-5.63-52.34-.05-10.34-4.6-19.45-5.26-30.22-1.37-22.27,11.27-46.02,35.38-29.46,2.19,1.5,8.03,7.34,9.72,7.34,1.59,0,10.14-5.72,13.64-6.72,29.28-8.34,30.38,20.62,26.53,41.01-.81,4.29-3.08,9.72-3.59,13.52-1.88,14.12-1.11,29.11-3.54,43.84-.55,3.34-3.62,19.03-5.23,20.78Z"></path>
        <path class="cls-1" d="M450.24,217c-1.66,1.73-4.72.42-4.48-2.11,3.68-14.53,3.03-32.1,8.74-45.94,7.54-18.25,22.06-12.44,27.15,4.12,4.26,13.87,4.17,28.76,6.82,42.95-1.59,2.97-3.74,1.96-4.85-.83-2.56-6.47-3.05-21.93-4.48-29.74-1.02-5.6-3.6-20.68-9.63-22.62-9.91-3.18-13.16,17.52-14.32,23.92-.83,4.56-3.22,28.45-4.95,30.25Z"></path>
        <rect class="cls-1" x="49.51" y="442.21" width="74.12" height="3"></rect>
        <rect class="cls-1" x="674.37" y="442.21" width="74.12" height="3"></rect>
        <path class="cls-1" d="M210.18,224.52c75.51,31.94,157.22,49.51,239.24,45.51,56.89-2.58,113.22-15.76,165.66-37.9,18.33-7.71,36.21-16.55,53.71-26.21-49.53,33.98-107.05,56.99-166.37,67.25-99.1,17.24-203.81-1.39-292.24-48.65h0Z"></path>
      </g>
    </g>
  </g>
</svg>