<?xml version="1.0"?>
<svg id="Layer_2" data-name="Layer 2" xmlns="http://www.w3.org/2000/svg" viewBox="0 0 753.26 138.12">
  <g id="Layer_1-2" data-name="Layer 1">
    <g>
      <g>
        <path d="M142.51,138.04c-1.99,0-3.76-.47-5.33-1.41-1.57-.94-2.81-2.3-3.71-4.06-.9-1.76-1.35-3.87-1.35-6.32s.45-4.57,1.35-6.34c.9-1.76,2.14-3.12,3.71-4.07,1.57-.95,3.35-1.42,5.33-1.42s3.76.47,5.32,1.42c1.56.95,2.79,2.3,3.69,4.07.9,1.77,1.35,3.88,1.35,6.34s-.45,4.56-1.35,6.32c-.9,1.77-2.13,3.12-3.69,4.06-1.56.94-3.33,1.41-5.32,1.41ZM142.51,134.83c1.31,0,2.48-.33,3.51-.98,1.03-.65,1.85-1.62,2.45-2.9.6-1.28.9-2.85.9-4.7s-.3-3.45-.9-4.73-1.42-2.25-2.45-2.9c-1.03-.65-2.21-.98-3.51-.98s-2.5.33-3.54.99c-1.04.66-1.86,1.63-2.46,2.91-.6,1.28-.9,2.85-.9,4.72s.3,3.42.9,4.69c.6,1.28,1.42,2.24,2.46,2.9,1.04.66,2.22.99,3.54.99Z"></path>
        <path d="M163.48,137.73v-23h14.31v3.03h-10.79v7.4h9.76v3.01h-9.76v9.57h-3.52Z"></path>
        <path d="M203.19,137.73v-23h8.48c1.64,0,2.99.27,4.06.8,1.07.54,1.87,1.26,2.39,2.17s.79,1.93.79,3.06c0,.96-.18,1.76-.52,2.42-.35.65-.82,1.18-1.41,1.57s-1.24.69-1.95.87v.23c.77.03,1.52.28,2.25.73.73.46,1.34,1.1,1.81,1.93.48.83.72,1.83.72,3.02s-.28,2.21-.83,3.15c-.55.94-1.4,1.68-2.54,2.22-1.14.55-2.61.82-4.4.82h-8.85ZM206.71,124.69h4.62c.77,0,1.47-.15,2.1-.45.63-.3,1.12-.72,1.48-1.27.36-.55.54-1.18.54-1.91,0-.95-.33-1.74-.99-2.37-.66-.63-1.67-.95-3.04-.95h-4.71v6.95ZM206.71,134.71h4.97c1.65,0,2.83-.32,3.55-.96.72-.64,1.08-1.43,1.08-2.38,0-.74-.18-1.41-.55-2.01-.37-.6-.88-1.07-1.55-1.43-.67-.35-1.47-.53-2.39-.53h-5.11v7.3Z"></path>
        <path d="M230.28,137.73v-23h8.24c1.77,0,3.25.31,4.43.92,1.18.61,2.07,1.46,2.66,2.56.59,1.09.88,2.34.88,3.75s-.3,2.66-.89,3.73-1.48,1.89-2.66,2.48-2.67.88-4.45.88h-6.19v-3.01h5.85c1.13,0,2.05-.16,2.74-.49s1.21-.79,1.54-1.4c.33-.61.49-1.34.49-2.19s-.17-1.61-.49-2.24c-.33-.63-.84-1.11-1.54-1.46-.7-.34-1.62-.52-2.76-.52h-4.32v19.99h-3.52ZM243.36,137.73l-5.57-10.39h3.91l5.67,10.39h-4Z"></path>
        <path d="M266.68,138.04c-1.99,0-3.76-.47-5.33-1.41-1.57-.94-2.8-2.3-3.71-4.06-.9-1.76-1.35-3.87-1.35-6.32s.45-4.57,1.35-6.34c.9-1.76,2.14-3.12,3.71-4.07,1.57-.95,3.35-1.42,5.33-1.42s3.76.47,5.32,1.42c1.56.95,2.79,2.3,3.69,4.07.9,1.77,1.35,3.88,1.35,6.34s-.45,4.56-1.35,6.32c-.9,1.77-2.13,3.12-3.69,4.06-1.56.94-3.33,1.41-5.32,1.41ZM266.68,134.83c1.31,0,2.48-.33,3.51-.98,1.03-.65,1.85-1.62,2.46-2.9.6-1.28.9-2.85.9-4.7s-.3-3.45-.9-4.73-1.42-2.25-2.46-2.9c-1.03-.65-2.21-.98-3.51-.98s-2.5.33-3.54.99c-1.04.66-1.86,1.63-2.46,2.91-.6,1.28-.9,2.85-.9,4.72s.3,3.42.9,4.69c.6,1.28,1.42,2.24,2.46,2.9,1.04.66,2.22.99,3.54.99Z"></path>
        <path d="M297.24,138.04c-1.99,0-3.76-.47-5.33-1.41-1.57-.94-2.81-2.3-3.71-4.06-.9-1.76-1.35-3.87-1.35-6.32s.45-4.57,1.35-6.34c.9-1.76,2.14-3.12,3.71-4.07,1.57-.95,3.35-1.42,5.33-1.42s3.76.47,5.32,1.42c1.56.95,2.79,2.3,3.69,4.07.9,1.77,1.35,3.88,1.35,6.34s-.45,4.56-1.35,6.32c-.9,1.77-2.13,3.12-3.69,4.06-1.56.94-3.33,1.41-5.32,1.41ZM297.24,134.83c1.31,0,2.48-.33,3.51-.98,1.03-.65,1.85-1.62,2.45-2.9.6-1.28.9-2.85.9-4.7s-.3-3.45-.9-4.73-1.42-2.25-2.45-2.9c-1.03-.65-2.21-.98-3.51-.98s-2.5.33-3.54.99c-1.04.66-1.86,1.63-2.46,2.91-.6,1.28-.9,2.85-.9,4.72s.3,3.42.9,4.69c.6,1.28,1.42,2.24,2.46,2.9,1.04.66,2.22.99,3.54.99Z"></path>
        <path d="M318.21,137.73v-23h3.52v7.35l-.06,5.25.06,1.73v8.68h-3.52ZM320.72,131.62v-3.52c.5-.77,1.01-1.5,1.51-2.18s1.02-1.35,1.57-2.01c.55-.66,1.13-1.34,1.74-2.04l6.45-7.15h4.48l-9.77,10.76-.23-.05-5.74,6.18ZM332.39,137.73l-7.83-11.25,2.21-2.7,9.79,13.96h-4.17Z"></path>
        <path d="M346.28,137.73v-23h3.52v19.98h10.42v3.03h-13.94Z"></path>
        <path d="M375.57,137.73v-9.16l-8.48-13.85h4.11l4.32,7.33c.48.8.91,1.57,1.27,2.32.37.74.74,1.66,1.13,2.75h-1.13c.39-1.11.77-2.04,1.13-2.79.37-.75.77-1.51,1.23-2.28l4.28-7.33h4.09l-8.44,13.85v9.16h-3.52Z"></path>
        <path d="M397.2,137.73v-23h4.06l8.66,13.69c.29.45.61.99.97,1.62.36.63.74,1.34,1.14,2.12s.8,1.64,1.19,2.57h-.43c-.09-.87-.16-1.74-.21-2.6s-.08-1.66-.1-2.42c-.02-.75-.03-1.38-.03-1.9v-13.09h3.57v23h-4.08l-7.77-12.24c-.41-.67-.82-1.34-1.21-2.02-.4-.68-.83-1.46-1.31-2.35-.48-.89-1.06-1.97-1.75-3.25h.56c.05,1.13.1,2.19.15,3.17.05.98.09,1.85.12,2.61.03.76.04,1.36.04,1.81v12.27h-3.57Z"></path>
        <path d="M442.19,137.73v-23h3.52v9.73h11.39v-9.73h3.54v23h-3.54v-10.25h-11.39v10.25h-3.52Z"></path>
        <path d="M472.05,137.73v-23h14.48v3.03h-10.96v6.85h10.17v3.01h-10.17v7.09h11.05v3.03h-14.57Z"></path>
        <path d="M500.96,114.73v23h-3.52v-23h3.52Z"></path>
        <path d="M522.05,138.04c-2.08,0-3.9-.48-5.47-1.44-1.57-.96-2.79-2.32-3.67-4.08s-1.32-3.86-1.32-6.28.44-4.56,1.34-6.32c.89-1.77,2.11-3.12,3.67-4.08,1.55-.95,3.32-1.43,5.31-1.43,1.23,0,2.39.18,3.47.55,1.08.37,2.04.89,2.89,1.56s1.55,1.48,2.1,2.41c.55.93.92,1.95,1.1,3.06h-3.61c-.21-.67-.49-1.27-.85-1.81-.36-.54-.79-1-1.29-1.38-.5-.38-1.07-.67-1.7-.87-.63-.2-1.33-.3-2.08-.3-1.3,0-2.46.33-3.5.99-1.03.66-1.85,1.63-2.46,2.91-.6,1.28-.9,2.85-.9,4.7s.3,3.42.9,4.69c.6,1.28,1.43,2.25,2.48,2.91s2.25,1,3.61,1c1.23,0,2.31-.25,3.23-.75.92-.5,1.64-1.21,2.15-2.13.51-.92.76-2.01.76-3.27l.91.15h-6.55v-2.9h9.08v2.64c0,1.94-.41,3.61-1.24,5.03-.83,1.42-1.96,2.51-3.4,3.28-1.44.77-3.09,1.16-4.96,1.16Z"></path>
        <path d="M542.34,137.73v-23h3.52v9.73h11.39v-9.73h3.54v23h-3.54v-10.25h-11.39v10.25h-3.52Z"></path>
        <path d="M571.05,117.76v-3.03h17.86v3.03h-7.15v19.98h-3.54v-19.98h-7.18Z"></path>
        <path d="M606.83,138.12c-1.72,0-3.21-.27-4.48-.82s-2.26-1.32-2.97-2.34c-.72-1.01-1.11-2.22-1.18-3.62h3.54c.07.83.34,1.52.81,2.07.47.55,1.08.95,1.83,1.22.75.27,1.56.4,2.44.4.98,0,1.84-.15,2.6-.46.76-.3,1.36-.74,1.8-1.3.44-.56.66-1.21.66-1.95,0-.67-.19-1.22-.58-1.64-.39-.43-.91-.78-1.56-1.07-.65-.28-1.4-.53-2.23-.75l-2.69-.74c-1.88-.5-3.35-1.25-4.41-2.24-1.06-.99-1.58-2.27-1.58-3.84,0-1.33.36-2.49,1.07-3.48.72-.99,1.69-1.76,2.92-2.32,1.23-.55,2.62-.83,4.16-.83s2.96.28,4.16.83c1.2.55,2.14,1.3,2.83,2.26.68.96,1.04,2.05,1.07,3.27h-3.43c-.11-1.05-.6-1.86-1.46-2.44s-1.94-.86-3.25-.86c-.93,0-1.73.14-2.42.43-.68.29-1.21.69-1.59,1.2-.38.51-.56,1.09-.56,1.74,0,.73.22,1.32.67,1.77s.99.8,1.64,1.07,1.26.47,1.85.63l2.24.59c.73.19,1.48.44,2.26.75.78.31,1.5.72,2.15,1.22.66.5,1.19,1.12,1.6,1.85.41.74.61,1.62.61,2.66,0,1.3-.33,2.45-1,3.47-.67,1.02-1.64,1.82-2.91,2.4s-2.81.87-4.61.87Z"></path>
      </g>
      <g>
        <path d="M49.93,22.3c-.59-5.57-2.53-9.89-5.82-12.97-3.29-3.08-7.51-4.62-12.66-4.62-3.14,0-6.09.67-8.84,2-2.75,1.33-5.17,3.24-7.24,5.73-2.07,2.49-3.7,5.48-4.89,8.97-1.19,3.5-1.78,7.43-1.78,11.82,0,5.57,1.07,10.48,3.2,14.75,2.13,4.27,5,7.58,8.62,9.95,3.61,2.37,7.61,3.55,11.99,3.55,3.85,0,7.64-.87,11.37-2.62s6.78-4.28,9.15-7.6l2.31,1.87c-2.55,3.5-5.3,6.19-8.26,8.09-2.96,1.9-5.91,3.18-8.84,3.86-2.93.68-5.61,1.02-8.04,1.02-4.44,0-8.52-.8-12.22-2.4-3.7-1.6-6.9-3.83-9.6-6.71-2.7-2.87-4.77-6.22-6.22-10.04-1.45-3.82-2.18-7.95-2.18-12.39,0-4.21.64-8.29,1.91-12.26,1.27-3.97,3.18-7.55,5.73-10.75,2.55-3.2,5.76-5.75,9.64-7.64,3.88-1.89,8.4-2.84,13.55-2.84,3.32,0,6.46.44,9.42,1.33,2.96.89,5.8,2.25,8.53,4.09l-.44-4.8h4.8v20.61h-3.2Z"></path>
        <path d="M61.93,62.02c1.84,0,3.11-.46,3.82-1.38.71-.92,1.12-2.19,1.24-3.82.12-1.63.18-3.51.18-5.64v-20.26c0-.95.01-1.9.04-2.84.03-.95.13-1.92.31-2.93-1.07.06-2.12.1-3.15.13-1.04.03-2.09.08-3.15.13v-3.64h2.75c2.55,0,4.31-.25,5.29-.76.98-.5,1.79-1.05,2.44-1.64h2.58c.12.95.21,2.12.27,3.51.06,1.39.12,3.15.18,5.29.89-1.48,2.1-2.93,3.64-4.35,1.54-1.42,3.27-2.61,5.2-3.55,1.92-.95,3.95-1.42,6.09-1.42,1.66,0,3.11.44,4.35,1.33s1.87,2.31,1.87,4.26c0,.47-.15,1.05-.44,1.73-.3.68-.77,1.27-1.42,1.78-.65.5-1.51.75-2.58.75-1.3-.06-2.34-.58-3.11-1.55-.77-.98-1.07-2.12-.89-3.42-1.48-.06-3.01.33-4.58,1.16-1.57.83-3.04,1.97-4.4,3.42-1.36,1.45-2.58,3.15-3.64,5.11l.09,21.86c0,1.19-.02,2.24-.04,3.15-.03.92-.13,1.88-.31,2.89.95-.06,1.88-.1,2.8-.13.92-.03,1.85-.07,2.8-.13v3.64h-18.21v-2.67Z"></path>
        <path d="M121.28,66.1c-4.09,0-7.77-.96-11.06-2.89-3.29-1.92-5.88-4.65-7.77-8.17-1.9-3.52-2.84-7.69-2.84-12.48,0-4.14.93-8.03,2.8-11.64,1.87-3.61,4.49-6.53,7.86-8.75,3.38-2.22,7.29-3.33,11.73-3.33,2.49,0,4.81.4,6.98,1.2,2.16.8,4.07,2.01,5.73,3.64,1.66,1.63,2.96,3.67,3.91,6.13.95,2.46,1.42,5.35,1.42,8.66l-31.28.53c0,4.5.49,8.46,1.47,11.86.98,3.41,2.56,6.04,4.75,7.91,2.19,1.87,5,2.8,8.44,2.8,1.84,0,3.72-.33,5.64-.98,1.92-.65,3.72-1.54,5.38-2.67,1.66-1.12,2.99-2.37,4-3.73l2.13,1.78c-1.6,2.49-3.53,4.47-5.78,5.95-2.25,1.48-4.56,2.55-6.93,3.2s-4.56.98-6.57.98ZM109.02,35.27h22.66c0-2.13-.31-4.19-.93-6.17-.62-1.98-1.64-3.61-3.07-4.89-1.42-1.27-3.29-1.91-5.6-1.91-3.44,0-6.29,1.02-8.57,3.06-2.28,2.04-3.78,5.35-4.49,9.91Z"></path>
        <path d="M174.77,64.68c-.18-1.01-.3-1.89-.36-2.67-.06-.77-.15-1.57-.27-2.4-2.01,2.01-4.19,3.6-6.53,4.75-2.34,1.15-4.81,1.73-7.42,1.73-4.5,0-7.85-1.02-10.04-3.07-2.19-2.04-3.29-4.54-3.29-7.51,0-2.72.84-5.08,2.53-7.06,1.69-1.98,3.88-3.61,6.57-4.89,2.7-1.27,5.63-2.22,8.8-2.84,3.17-.62,6.23-.9,9.2-.84v-5.51c0-2.07-.18-4.03-.53-5.86-.36-1.83-1.13-3.35-2.31-4.53-1.19-1.18-3.08-1.81-5.69-1.87-1.72-.06-3.48.27-5.29.98-1.81.71-3.12,1.93-3.95,3.64.47.47.78,1.02.93,1.64.15.62.22,1.2.22,1.73,0,.71-.3,1.53-.89,2.44-.59.92-1.63,1.35-3.11,1.29-1.24,0-2.19-.43-2.84-1.29-.65-.86-.98-1.88-.98-3.07,0-2.01.75-3.82,2.27-5.42,1.51-1.6,3.6-2.87,6.26-3.82,2.67-.95,5.69-1.42,9.06-1.42,4.98,0,8.65,1.32,11.02,3.95,2.37,2.64,3.52,6.8,3.47,12.48v6.62c0,2.22-.02,4.44-.04,6.66-.03,2.22-.04,4.46-.04,6.71,0,.95-.03,1.9-.09,2.84-.06.95-.15,2.01-.27,3.2,1.07-.06,2.12-.12,3.15-.18,1.04-.06,2.09-.12,3.15-.18v3.73h-12.71ZM173.97,42.91c-2.01.06-4.13.31-6.35.76s-4.26,1.11-6.13,2c-1.87.89-3.38,2.06-4.53,3.51-1.16,1.45-1.7,3.21-1.64,5.29.12,2.19.84,3.84,2.18,4.93,1.33,1.1,2.92,1.64,4.75,1.64,2.43,0,4.54-.46,6.35-1.38,1.81-.92,3.6-2.21,5.38-3.87-.06-.65-.09-1.36-.09-2.13v-2.4c0-.3.01-1.24.04-2.84.03-1.6.04-3.43.04-5.51Z"></path>
        <path d="M209.68,66.1c-1.36,0-2.75-.19-4.18-.58-1.42-.39-2.74-1.14-3.95-2.27-1.21-1.12-2.18-2.77-2.89-4.93-.71-2.16-1.07-5.02-1.07-8.57l.18-25.77-6.84.09v-3.82c1.54-.06,3.11-.64,4.71-1.73,1.6-1.1,3.04-2.59,4.31-4.49,1.27-1.89,2.15-3.97,2.62-6.22h3.02v12.44h14.93v3.46l-14.93.18-.18,24.7c0,2.67.22,4.93.67,6.8.44,1.87,1.17,3.27,2.18,4.22,1.01.95,2.31,1.42,3.91,1.42s3.21-.47,4.66-1.42c1.45-.95,2.74-2.25,3.87-3.91l2.4,1.95c-1.3,1.96-2.59,3.5-3.86,4.62-1.27,1.13-2.5,1.97-3.69,2.53-1.19.56-2.28.92-3.29,1.07-1.01.15-1.87.22-2.58.22Z"></path>
        <path d="M227.37,62.02c1.83,0,3.11-.46,3.82-1.38.71-.92,1.12-2.19,1.24-3.82.12-1.63.18-3.51.18-5.64v-20.26c0-.95.03-1.85.09-2.71.06-.86.15-1.88.27-3.07-1.07.06-2.12.12-3.15.18-1.04.06-2.09.12-3.15.18v-3.73c2.61,0,4.62-.12,6.04-.36,1.42-.24,2.5-.53,3.24-.89.74-.36,1.32-.74,1.73-1.16h2.58v35.9c0,1.19-.01,2.24-.04,3.15-.03.92-.13,1.88-.31,2.89.95-.06,1.88-.1,2.8-.13.92-.03,1.85-.07,2.8-.13v3.64h-18.12v-2.67ZM235.89,10.57c-1.24,0-2.34-.5-3.29-1.51-.95-1.01-1.42-2.25-1.42-3.73s.49-2.74,1.47-3.78c.98-1.04,2.09-1.55,3.33-1.55,1.36,0,2.5.52,3.42,1.55.92,1.04,1.38,2.3,1.38,3.78s-.49,2.73-1.47,3.73c-.98,1.01-2.12,1.51-3.42,1.51Z"></path>
        <path d="M269.21,64.95l-12.71-28.96c-.95-2.25-1.69-4.18-2.22-5.78-.53-1.6-.9-2.93-1.11-4-.21-1.07-.34-1.92-.4-2.58l-3.82.27v-3.64h16.35v2.67c-1.78,0-2.92.46-3.42,1.38-.5.92-.58,2.13-.22,3.64s.89,3.12,1.6,4.84l6.84,15.64c.47,1.01.93,2.06,1.38,3.15.44,1.1.87,2.24,1.29,3.42h.09c.3-.89.64-1.83,1.02-2.84.38-1.01.72-1.98,1.02-2.93l7.11-19.46c.47-1.42.98-2.67,1.51-3.73s.92-1.87,1.15-2.4l-5.69.27v-3.64h14.04v2.67c-1.3,0-2.4.44-3.29,1.33-.89.89-1.73,2.22-2.53,4-.8,1.78-1.73,4-2.8,6.66l-11.64,30.03h-3.55Z"></path>
        <path d="M318.26,66.1c-4.09,0-7.77-.96-11.06-2.89-3.29-1.92-5.88-4.65-7.77-8.17-1.9-3.52-2.84-7.69-2.84-12.48,0-4.14.93-8.03,2.8-11.64,1.87-3.61,4.49-6.53,7.86-8.75,3.38-2.22,7.29-3.33,11.73-3.33,2.49,0,4.81.4,6.98,1.2,2.16.8,4.07,2.01,5.73,3.64,1.66,1.63,2.96,3.67,3.91,6.13.95,2.46,1.42,5.35,1.42,8.66l-31.28.53c0,4.5.49,8.46,1.47,11.86.98,3.41,2.56,6.04,4.75,7.91,2.19,1.87,5,2.8,8.44,2.8,1.84,0,3.72-.33,5.64-.98,1.92-.65,3.72-1.54,5.38-2.67,1.66-1.12,2.99-2.37,4-3.73l2.13,1.78c-1.6,2.49-3.53,4.47-5.78,5.95-2.25,1.48-4.56,2.55-6.93,3.2s-4.56.98-6.57.98ZM306,35.27h22.66c0-2.13-.31-4.19-.93-6.17-.62-1.98-1.64-3.61-3.07-4.89-1.42-1.27-3.29-1.91-5.6-1.91-3.44,0-6.29,1.02-8.57,3.06-2.28,2.04-3.78,5.35-4.49,9.91Z"></path>
        <path d="M369.25,61.75c2.25-.12,3.79-.64,4.62-1.56.83-.92,1.29-2.19,1.38-3.82.09-1.63.13-3.48.13-5.55V12.44c0-1.18.03-2.32.09-3.42.06-1.1.12-2.09.18-2.98-1.07.06-2.13.12-3.2.18-1.07.06-2.13.12-3.2.18v-3.91l20.97-.09c5.33,0,10.22.62,14.66,1.87,4.44,1.24,8.28,3.15,11.51,5.73,3.23,2.58,5.71,5.83,7.46,9.77,1.75,3.94,2.62,8.57,2.62,13.9,0,4.09-.71,8-2.13,11.73s-3.55,7.03-6.4,9.91c-2.84,2.87-6.38,5.15-10.62,6.84-4.24,1.69-9.14,2.53-14.71,2.53h-23.37v-2.93ZM383.12,54.2c0,1.6-.01,2.96-.04,4.09-.03,1.13-.11,2.07-.22,2.84,1.6.06,3.06.1,4.4.13,1.33.03,2.46.04,3.38.04h1.73c3.85,0,7.33-.71,10.44-2.13,3.11-1.42,5.78-3.39,8-5.91,2.22-2.52,3.94-5.48,5.15-8.88s1.82-7.09,1.82-11.06c0-5.63-1.02-10.5-3.07-14.62-2.04-4.12-5.17-7.32-9.37-9.6-4.21-2.28-9.57-3.42-16.08-3.42-2.19,0-3.72.44-4.58,1.33-.86.89-1.33,2.13-1.42,3.73-.09,1.6-.13,3.46-.13,5.6v37.85Z"></path>
        <path d="M455.97,66.1c-4.09,0-7.77-.96-11.06-2.89-3.29-1.92-5.88-4.65-7.77-8.17-1.9-3.52-2.84-7.69-2.84-12.48,0-4.14.93-8.03,2.8-11.64,1.87-3.61,4.49-6.53,7.86-8.75,3.38-2.22,7.29-3.33,11.73-3.33,2.49,0,4.81.4,6.97,1.2,2.16.8,4.07,2.01,5.73,3.64,1.66,1.63,2.96,3.67,3.91,6.13.95,2.46,1.42,5.35,1.42,8.66l-31.28.53c0,4.5.49,8.46,1.47,11.86.98,3.41,2.56,6.04,4.75,7.91,2.19,1.87,5,2.8,8.44,2.8,1.84,0,3.72-.33,5.64-.98,1.92-.65,3.72-1.54,5.38-2.67,1.66-1.12,2.99-2.37,4-3.73l2.13,1.78c-1.6,2.49-3.52,4.47-5.78,5.95-2.25,1.48-4.56,2.55-6.93,3.2-2.37.65-4.56.98-6.58.98ZM443.71,35.27h22.66c0-2.13-.31-4.19-.93-6.17-.62-1.98-1.64-3.61-3.06-4.89-1.42-1.27-3.29-1.91-5.6-1.91-3.44,0-6.29,1.02-8.57,3.06-2.28,2.04-3.78,5.35-4.49,9.91Z"></path>
        <path d="M482.63,64.68v-2.67c1.84,0,3.11-.46,3.82-1.38.71-.92,1.12-2.19,1.24-3.82.12-1.63.18-3.51.18-5.64l.09-20.26c0-.95.01-1.9.04-2.84.03-.95.13-1.92.31-2.93-1.07.06-2.12.12-3.15.18-1.04.06-2.09.12-3.15.18v-3.73c2.61,0,4.58-.12,5.91-.36,1.33-.24,2.32-.53,2.98-.89.65-.36,1.18-.74,1.6-1.16h2.58c.06.42.1.89.13,1.42.03.53.07,1.13.13,1.78.06.65.09,1.39.09,2.22,1.3-1.12,2.74-2.13,4.31-3.02,1.57-.89,3.23-1.6,4.98-2.13,1.75-.53,3.48-.8,5.2-.8,5.15,0,8.91,1.62,11.28,4.84,2.37,3.23,3.55,8.25,3.55,15.06v16.53c0,1.19-.02,2.24-.04,3.15-.03.92-.13,1.88-.31,2.89.95-.06,1.88-.1,2.8-.13.92-.03,1.85-.07,2.8-.13v3.64h-18.13v-2.67c1.84,0,3.11-.46,3.82-1.38.71-.92,1.12-2.19,1.24-3.82.12-1.63.18-3.51.18-5.64v-12.44c-.06-5.09-.9-8.94-2.53-11.55-1.63-2.61-4.19-3.88-7.69-3.82-2.13.06-4.22.62-6.26,1.69s-3.75,2.43-5.11,4.09c.06.47.09,1.01.09,1.6v1.87l-.09,22.66c0,1.19-.02,2.24-.04,3.15-.03.92-.13,1.88-.31,2.89.95-.06,1.88-.1,2.8-.13.92-.03,1.85-.07,2.8-.13v3.64h-18.13Z"></path>
        <path d="M552.46,66.1c-1.36,0-2.75-.19-4.18-.58-1.42-.39-2.74-1.14-3.95-2.27-1.21-1.12-2.18-2.77-2.89-4.93-.71-2.16-1.07-5.02-1.07-8.57l.18-25.77-6.84.09v-3.82c1.54-.06,3.11-.64,4.71-1.73,1.6-1.1,3.03-2.59,4.31-4.49,1.27-1.89,2.15-3.97,2.62-6.22h3.02v12.44h14.93v3.46l-14.93.18-.18,24.7c0,2.67.22,4.93.67,6.8.44,1.87,1.17,3.27,2.18,4.22,1.01.95,2.31,1.42,3.91,1.42s3.21-.47,4.67-1.42c1.45-.95,2.74-2.25,3.87-3.91l2.4,1.95c-1.3,1.96-2.59,3.5-3.87,4.62-1.27,1.13-2.5,1.97-3.69,2.53-1.19.56-2.28.92-3.29,1.07-1.01.15-1.87.22-2.58.22Z"></path>
        <path d="M570.14,62.02c1.84,0,3.11-.46,3.82-1.38.71-.92,1.12-2.19,1.24-3.82.12-1.63.18-3.51.18-5.64v-20.26c0-.95.03-1.85.09-2.71.06-.86.15-1.88.27-3.07-1.07.06-2.12.12-3.15.18-1.04.06-2.09.12-3.15.18v-3.73c2.61,0,4.62-.12,6.04-.36,1.42-.24,2.5-.53,3.24-.89.74-.36,1.32-.74,1.73-1.16h2.58v35.9c0,1.19-.02,2.24-.04,3.15-.03.92-.13,1.88-.31,2.89.95-.06,1.88-.1,2.8-.13.92-.03,1.85-.07,2.8-.13v3.64h-18.13v-2.67ZM578.67,10.57c-1.24,0-2.34-.5-3.29-1.51-.95-1.01-1.42-2.25-1.42-3.73s.49-2.74,1.47-3.78c.98-1.04,2.09-1.55,3.33-1.55,1.36,0,2.5.52,3.42,1.55.92,1.04,1.38,2.3,1.38,3.78s-.49,2.73-1.47,3.73c-.98,1.01-2.12,1.51-3.42,1.51Z"></path>
        <path d="M613.32,66.1c-2.96,0-5.6-.4-7.91-1.2-2.31-.8-4.21-1.7-5.69-2.71l.36,3.11h-3.73l-.53-15.28h2.75c.12,2.43.8,4.61,2.04,6.53,1.24,1.93,2.84,3.42,4.8,4.49,1.96,1.07,4.06,1.6,6.31,1.6,1.54,0,3.05-.25,4.53-.75,1.48-.5,2.72-1.27,3.73-2.31,1.01-1.04,1.51-2.35,1.51-3.95s-.49-3.04-1.47-4.13c-.98-1.09-2.27-2.06-3.87-2.89-1.6-.83-3.32-1.6-5.15-2.31-1.78-.71-3.55-1.45-5.33-2.22-1.78-.77-3.42-1.69-4.93-2.75-1.51-1.07-2.71-2.37-3.6-3.91s-1.33-3.44-1.33-5.69c0-1.24.24-2.61.71-4.09.47-1.48,1.27-2.89,2.4-4.22s2.67-2.43,4.62-3.29c1.95-.86,4.44-1.29,7.46-1.29,1.6,0,3.38.27,5.33.8s3.85,1.54,5.69,3.02l-.18-3.38h3.73v15.55h-2.84c-.12-2.07-.59-4.07-1.42-6-.83-1.92-2.04-3.52-3.64-4.8-1.6-1.27-3.67-1.91-6.22-1.91-2.73,0-4.86.68-6.4,2.04-1.54,1.36-2.31,2.93-2.31,4.71s.58,3.36,1.73,4.58c1.16,1.21,2.65,2.27,4.49,3.15,1.84.89,3.79,1.75,5.86,2.58,2.25.95,4.44,1.99,6.58,3.11,2.13,1.12,3.88,2.53,5.24,4.22,1.36,1.69,2.04,3.87,2.04,6.53,0,2.96-.75,5.42-2.27,7.38-1.51,1.95-3.44,3.39-5.77,4.31-2.34.92-4.78,1.38-7.33,1.38Z"></path>
        <path d="M652.95,66.1c-1.36,0-2.75-.19-4.18-.58-1.42-.39-2.74-1.14-3.95-2.27-1.21-1.12-2.18-2.77-2.89-4.93-.71-2.16-1.07-5.02-1.07-8.57l.18-25.77-6.84.09v-3.82c1.54-.06,3.11-.64,4.71-1.73,1.6-1.1,3.03-2.59,4.31-4.49,1.27-1.89,2.15-3.97,2.62-6.22h3.02v12.44h14.93v3.46l-14.93.18-.18,24.7c0,2.67.22,4.93.67,6.8.44,1.87,1.17,3.27,2.18,4.22,1.01.95,2.31,1.42,3.91,1.42s3.21-.47,4.67-1.42c1.45-.95,2.74-2.25,3.87-3.91l2.4,1.95c-1.3,1.96-2.59,3.5-3.87,4.62-1.27,1.13-2.5,1.97-3.69,2.53-1.19.56-2.28.92-3.29,1.07-1.01.15-1.87.22-2.58.22Z"></path>
        <path d="M670.63,62.02c1.84,0,3.11-.46,3.82-1.38.71-.92,1.12-2.19,1.24-3.82.12-1.63.18-3.51.18-5.64v-20.26c0-.95.01-1.9.04-2.84.03-.95.13-1.92.31-2.93-1.07.06-2.12.1-3.15.13-1.04.03-2.09.08-3.15.13v-3.64h2.75c2.55,0,4.31-.25,5.29-.76.98-.5,1.79-1.05,2.44-1.64h2.58c.12.95.21,2.12.27,3.51.06,1.39.12,3.15.18,5.29.89-1.48,2.1-2.93,3.64-4.35,1.54-1.42,3.27-2.61,5.2-3.55,1.92-.95,3.95-1.42,6.09-1.42,1.66,0,3.11.44,4.35,1.33,1.24.89,1.87,2.31,1.87,4.26,0,.47-.15,1.05-.44,1.73-.3.68-.77,1.27-1.42,1.78-.65.5-1.51.75-2.58.75-1.3-.06-2.34-.58-3.11-1.55-.77-.98-1.07-2.12-.89-3.42-1.48-.06-3.01.33-4.58,1.16-1.57.83-3.04,1.97-4.4,3.42-1.36,1.45-2.58,3.15-3.64,5.11l.09,21.86c0,1.19-.02,2.24-.04,3.15-.03.92-.13,1.88-.31,2.89.95-.06,1.88-.1,2.8-.13.92-.03,1.85-.07,2.8-.13v3.64h-18.21v-2.67Z"></path>
        <path d="M717.45,88.76c-1.84,0-3.41-.44-4.71-1.33-1.3-.89-1.96-2.25-1.96-4.09,0-1.07.36-2.04,1.07-2.93s1.63-1.33,2.75-1.33c1.42-.06,2.38.38,2.89,1.33.5.95.76,1.78.76,2.49v.58c0,.21-.03.43-.09.67.18.12.5.18.98.18.71,0,1.48-.3,2.31-.89.83-.59,1.57-1.45,2.22-2.58.77-1.3,1.67-3.26,2.71-5.86,1.04-2.61,2.21-5.72,3.51-9.33l-13.86-29.68c-1.54-3.32-2.65-5.95-3.33-7.91-.68-1.95-1.14-3.41-1.38-4.35l-4.26.18v-3.64h18.39v2.67h-.36c-2.49.18-3.85,1.11-4.09,2.8-.24,1.69.44,4.25,2.04,7.69l10.4,22.3c1.36-3.79,2.67-7.54,3.91-11.24,1.24-3.7,2.49-7.39,3.73-11.06.47-1.3.96-2.65,1.47-4.04.5-1.39,1.01-2.64,1.51-3.73.5-1.09.96-1.79,1.38-2.09l-6.13.36v-3.64h13.95v2.67c-2.19.83-3.84,2.21-4.93,4.13-1.1,1.93-2.21,4.4-3.33,7.42l-11.11,31.01c-1.78,4.98-3.41,9.2-4.89,12.66-1.48,3.46-3.11,6.1-4.89,7.91-1.78,1.81-4,2.71-6.66,2.71Z"></path>
      </g>
      <rect x="27.04" y="123.25" width="74.12" height="3"></rect>
      <rect x="651.9" y="123.25" width="74.12" height="3"></rect>
    </g>
  </g>
</svg>